<?xml version="1.0" encoding="UTF-8" standalone="no"?><svg xmlns="http://www.w3.org/2000/svg" xmlns:xlink="http://www.w3.org/1999/xlink" fill="#000000" height="101.9" preserveAspectRatio="xMidYMid meet" version="1" viewBox="-1.6 -0.4 339.3 101.9" width="339.3" zoomAndPan="magnify"><linearGradient gradientUnits="userSpaceOnUse" id="a" x1="2.25" x2="334.179" xlink:actuate="onLoad" xlink:show="other" xlink:type="simple" y1="50.45" y2="50.45"><stop offset="0" stop-color="#243440"/><stop offset="0.503" stop-color="#243440"/><stop offset="1" stop-color="#243440"/></linearGradient><path d="M328.43,3.54c-3.19-2.58-7.17-3.97-11.29-3.43c-1.34,0.17-2.5,1.02-2.5,2.5c0,1.22,1.15,2.68,2.5,2.5 c8.52-1.11,13.91,7.74,14.03,15.33c0.16,9.88-8.89,16.38-17.5,18.95c-12.51,3.73-25.12,0.24-37.84,0.38 c-11.08,0.12-22,3.72-31.11,10.01c-3.05,2.11-5.9,4.51-8.51,7.14c-12.75-16.56-33.27-26.46-54.32-24.53 c-0.78,0.07-1.56,0.16-2.34,0.26c-2.62-3.9-5.83-7.39-9.44-10.3c-9.56-7.69-21.41-10.93-33.58-10.73 c-13.44,0.23-26.5,4.02-39.45,7.22c-12.77,3.15-25.5,5.27-38.7,4.86c-12.81-0.4-25.53-2.86-37.59-7.22 c-5.89-2.13-11.57-4.74-17.05-7.77c-2.82-1.56-5.34,2.76-2.52,4.32c21.45,11.87,46.39,17.32,70.85,15.34 c12.78-1.04,25.07-4.46,37.48-7.48c11.95-2.91,24.58-5.64,36.9-3.64c10.64,1.73,20.09,6.97,26.89,15.37 c0.25,0.31,0.5,0.64,0.74,0.96c-8.4,1.8-16.46,5.25-23.48,10.23c-9.08,6.43-17.92,15.83-19.68,27.25c-0.86,5.6,0.27,11.3,4.2,15.55 c3.76,4.08,9.38,5.92,14.8,6.24c10.74,0.62,21.16-5.03,27.84-13.21c6.91-8.47,10.14-19.19,8.53-30.04 c-0.63-4.25-2.01-8.37-3.96-12.22c6.63-0.58,13.34-0.01,19.79,1.83c9.83,2.81,18.75,8.36,25.83,15.71c1.75,1.82,3.38,3.74,4.88,5.76 c-3.53,4.26-6.43,9.03-8.5,14.19c-2.99,7.44-2.85,19.14,4.39,24.21c3.43,2.4,8.39,2.41,11.89,0.15c3.67-2.37,5.58-6.72,6.24-10.9 c1.54-9.69-2.45-19.29-7.7-27.31c2.76-2.87,5.84-5.43,9.11-7.59c8.79-5.81,18.98-8.84,29.52-8.65c6.86,0.12,13.65,1.22,20.51,1.44 c5.16,0.16,10.39-0.31,15.39-1.62c9.21-2.43,18.81-8.38,21.7-18C337.74,18.64,334.93,8.79,328.43,3.54z M181.37,60.33 c-1.66,9.62-7.57,18.49-15.97,23.52c-7.73,4.63-20.2,6.6-26.9-0.94c-7.34-8.27,0.14-20.88,6.22-27.4 c7.2-7.71,16.55-13.25,26.68-16.13c1.86-0.53,3.74-0.96,5.63-1.3C180.82,44.8,182.68,52.72,181.37,60.33z M236.94,67.07 c2.27,4.08,4.39,8.66,5.07,13.32c0.79,5.41-0.64,17.58-8.93,15.29c-3.28-0.91-4.66-4.6-5.23-7.66c-0.72-3.84-0.21-8.03,1.23-11.65 c1.62-4.07,3.89-7.91,6.62-11.39C236.11,65.67,236.54,66.36,236.94,67.07z" fill="url(#a)"/></svg>