<?xml version="1.0" encoding="UTF-8" standalone="no"?><svg xmlns="http://www.w3.org/2000/svg" xmlns:xlink="http://www.w3.org/1999/xlink" fill="#000000" height="1529.8" preserveAspectRatio="xMidYMid meet" version="1" viewBox="-14.1 -2.2 1814.7 1529.8" width="1814.7" zoomAndPan="magnify"><g id="change1_1"><path d="M 726.246094 467.808594 C 692.714844 443.3125 655.691406 436.449219 618.605469 430.640625 C 546.5625 419.347656 473.8125 411.789062 402.378906 397.554688 C 283.425781 373.832031 168.78125 337.226562 68.738281 265.058594 C 45.488281 248.296875 23.65625 229.953125 10.148438 203.707031 C -14.117188 156.5625 6.578125 103.039062 56.765625 86.441406 C 107.089844 69.800781 158.265625 74.425781 208.804688 85.371094 C 407.449219 128.347656 588.226562 212.066406 755.46875 326.457031 C 782.511719 344.964844 810.425781 362.183594 837.964844 379.960938 C 838.792969 380.492188 839.9375 380.546875 844.101562 381.707031 C 838.09375 375.476562 834.308594 370.941406 829.929688 367.097656 C 785.839844 328.390625 741.035156 290.492188 697.671875 251.003906 C 653.359375 210.640625 612.371094 167.078125 584.757812 113 C 578.09375 99.957031 572.453125 85.835938 569.507812 71.554688 C 561.984375 35.09375 583.332031 6.003906 620.398438 1.863281 C 657.226562 -2.246094 691.738281 7.617188 724.863281 22.878906 C 786.011719 51.027344 834.476562 95.960938 881.746094 142.339844 C 980.160156 238.886719 1063.652344 346.699219 1130.394531 467.652344 C 1150.503906 504.089844 1175.375 537.941406 1198.730469 572.527344 C 1204.78125 581.484375 1213.339844 588.75 1220.738281 596.792969 C 1222.21875 596.09375 1223.695312 595.394531 1225.175781 594.695312 C 1218.441406 574.703125 1212.820312 554.246094 1204.734375 534.804688 C 1183.246094 483.050781 1159.238281 432.292969 1139.109375 380.027344 C 1127.003906 348.632812 1119.484375 315.359375 1111.523438 282.542969 C 1108.199219 268.890625 1107.65625 254.160156 1108.296875 240.027344 C 1110.652344 188.023438 1151.761719 161.457031 1198.828125 183.949219 C 1220.59375 194.363281 1240.890625 210.597656 1257.644531 228.199219 C 1299.5625 272.25 1323.4375 327.054688 1335.738281 385.558594 C 1351.398438 459.972656 1362.121094 535.414062 1375.8125 610.253906 C 1381.898438 643.492188 1389.957031 676.363281 1397.347656 709.351562 C 1398.417969 714.128906 1400.78125 718.621094 1406.167969 722.640625 C 1406.058594 684.75 1405.726562 646.859375 1405.871094 608.972656 C 1406.101562 548.773438 1406.214844 488.5625 1407.394531 428.382812 C 1407.683594 413.761719 1411.214844 399.042969 1414.574219 384.675781 C 1426.210938 334.960938 1474.789062 316.1875 1516.6875 345.796875 C 1529.453125 354.816406 1541.101562 366.257812 1550.953125 378.449219 C 1610.828125 452.578125 1633.519531 538.65625 1632.8125 632.710938 C 1632.207031 713.503906 1617.996094 792.53125 1605.558594 871.867188 C 1601.792969 895.875 1598.648438 919.980469 1595.136719 944.03125 C 1590.675781 974.457031 1598.527344 1001.097656 1616.945312 1025.882812 C 1639.320312 1055.988281 1662.496094 1085.945312 1680.863281 1118.492188 C 1736.773438 1217.632812 1779.253906 1322.183594 1798.003906 1435.203125 C 1800.136719 1448.097656 1800.554688 1461.671875 1799.253906 1474.679688 C 1795.507812 1512.292969 1760.4375 1527.59375 1731.316406 1503.433594 C 1717.824219 1492.242188 1704.691406 1477.917969 1697.582031 1462.21875 C 1669.90625 1401.09375 1645.128906 1338.671875 1618.46875 1277.082031 C 1599.796875 1233.917969 1584.082031 1188.640625 1559.300781 1149.171875 C 1531.472656 1104.859375 1488.242188 1074.835938 1435.355469 1065.0625 C 1346.738281 1048.691406 1260.691406 1065.164062 1175.96875 1090.699219 C 1151.695312 1098.015625 1128.464844 1108.96875 1104.03125 1115.550781 C 1085.949219 1120.421875 1066.496094 1123.921875 1047.988281 1122.757812 C 1004.765625 1120.050781 985.378906 1077.75 1009.582031 1041.6875 C 1028.378906 1013.6875 1057.332031 998.898438 1086.769531 985.445312 C 1127.171875 966.988281 1168.085938 949.6875 1208.535156 931.332031 C 1218.925781 926.613281 1228.378906 919.796875 1238.261719 913.941406 C 1238.304688 912.269531 1238.351562 910.601562 1238.394531 908.925781 C 1225.730469 905.09375 1213.117188 898.269531 1200.363281 898.003906 C 1165.632812 897.28125 1130.40625 896.148438 1096.167969 900.90625 C 1014.503906 912.253906 933.484375 928.199219 851.859375 939.84375 C 772.6875 951.140625 692.890625 957.410156 613.398438 943.042969 C 589.296875 938.683594 565.042969 930.835938 543.046875 920.09375 C 505.761719 901.882812 499.105469 866.179688 523.882812 832.664062 C 544.105469 805.308594 572.890625 790.183594 604.542969 782.539062 C 648.648438 771.882812 693.398438 763.453125 738.234375 756.363281 C 803.484375 746.042969 869.105469 738.046875 934.46875 728.402344 C 949.941406 726.117188 965.023438 721.207031 980.28125 717.503906 C 980.664062 715.824219 981.050781 714.144531 981.429688 712.46875 C 970 705.84375 958.976562 698.359375 947.070312 692.746094 C 896.777344 669.039062 843.074219 664.859375 788.789062 668.796875 C 708.664062 674.601562 628.722656 682.828125 548.621094 688.984375 C 470.761719 694.960938 393.226562 692.207031 316.824219 674.4375 C 287.40625 667.597656 258.335938 659.164062 234.074219 639.804688 C 199.679688 612.359375 198.152344 570.992188 230.632812 541.273438 C 254.433594 519.5 283.777344 508.882812 314.628906 502.46875 C 397.492188 485.242188 481.34375 483.195312 565.585938 486.898438 C 599.332031 488.382812 633.164062 489.390625 666.921875 488.664062 C 687.488281 488.222656 707.375 482.4375 726.246094 467.808594" fill="#f9f5f1"/></g></svg>