<?xml version="1.0" encoding="UTF-8" standalone="no"?><svg xmlns="http://www.w3.org/2000/svg" xmlns:xlink="http://www.w3.org/1999/xlink" fill="#000000" height="292.6" preserveAspectRatio="xMidYMid meet" version="1" viewBox="-9.3 -7.5 202.0 292.6" width="202" zoomAndPan="magnify"><defs><clipPath id="a"><path d="M 14 239 L 44 239 L 44 285.050781 L 14 285.050781 Z M 14 239"/></clipPath></defs><g><g id="change1_1"><path d="M 138.992188 104.660156 C 111.335938 91.199219 123.464844 59.894531 152.082031 70.910156 C 156.585938 72.644531 160.875 74.5625 164.816406 76.691406 C 165.242188 76.921875 165.667969 77.15625 166.09375 77.390625 C 192.683594 92.171875 177.746094 121.742188 149.824219 109.636719 C 146.269531 108.097656 142.652344 106.4375 138.992188 104.660156" fill="#c19784"/></g><g id="change1_2"><path d="M 70.679688 116.789062 C 98.644531 103.96875 115.121094 133.214844 88.441406 148.328125 C 84.242188 150.710938 80.035156 152.800781 75.890625 154.496094 C 75.441406 154.679688 74.988281 154.859375 74.539062 155.035156 C 46.234375 166.191406 32.875 135.878906 59.957031 121.992188 C 63.40625 120.226562 66.984375 118.484375 70.679688 116.789062" fill="#c19784"/></g><g id="change1_3"><path d="M 73.664062 38.4375 C 100.722656 23.804688 119.09375 51.902344 93.464844 68.742188 C 89.429688 71.390625 85.371094 73.757812 81.34375 75.71875 C 80.910156 75.933594 80.472656 76.140625 80.03125 76.347656 C 52.527344 89.34375 37.199219 59.976562 63.308594 44.339844 C 66.632812 42.347656 70.085938 40.371094 73.664062 38.4375" fill="#c19784"/></g><g id="change1_4"><path d="M 130.417969 173.367188 C 122.3125 147.355469 149.867188 136.183594 160.132812 161.328125 C 161.746094 165.285156 163.109375 169.21875 164.128906 173.050781 C 164.238281 173.464844 164.347656 173.882812 164.453125 174.296875 C 171.054688 200.421875 142.914062 208.734375 133.777344 183.375 C 132.613281 180.144531 131.488281 176.808594 130.417969 173.367188" fill="#c19784"/></g><g id="change1_5"><path d="M 32.164062 188.8125 C 47.535156 206.570312 29.613281 224.898438 12.835938 208.570312 C 10.195312 206 7.761719 203.363281 5.636719 200.6875 C 5.40625 200.394531 5.175781 200.105469 4.949219 199.8125 C -9.273438 181.445312 10.09375 165.179688 26.058594 182.0625 C 28.089844 184.214844 30.132812 186.464844 32.164062 188.8125" fill="#c19784"/></g><g id="change1_6"><path d="M 175.226562 28.496094 C 171.972656 51.757812 146.378906 50.328125 147.628906 26.949219 C 147.828125 23.269531 148.210938 19.703125 148.828125 16.339844 C 148.894531 15.976562 148.964844 15.609375 149.035156 15.246094 C 153.496094 -7.546875 178.492188 -3.675781 176.285156 19.457031 C 176.007812 22.402344 175.65625 25.421875 175.226562 28.496094" fill="#c19784"/></g><g clip-path="url(#a)" id="change1_8"><path d="M 42.382812 268.316406 C 39.128906 291.574219 13.535156 290.148438 14.785156 266.769531 C 14.984375 263.089844 15.367188 259.523438 15.984375 256.160156 C 16.050781 255.792969 16.121094 255.429688 16.191406 255.066406 C 20.65625 232.269531 45.652344 236.144531 43.445312 259.277344 C 43.164062 262.222656 42.8125 265.238281 42.382812 268.316406" fill="#c19784"/></g><g id="change1_7"><path d="M 81.644531 205.074219 C 94.691406 185.542969 117.113281 197.960938 105.820312 218.472656 C 104.042969 221.699219 102.144531 224.742188 100.128906 227.503906 C 99.910156 227.804688 99.6875 228.101562 99.46875 228.398438 C 85.53125 246.984375 64.710938 232.621094 76.757812 212.753906 C 78.292969 210.222656 79.917969 207.65625 81.644531 205.074219" fill="#c19784"/></g></g></svg>