<?xml version="1.0" encoding="UTF-8" standalone="no"?><svg xmlns="http://www.w3.org/2000/svg" xmlns:xlink="http://www.w3.org/1999/xlink" fill="#f1d1c6" height="2267.5" preserveAspectRatio="xMidYMid meet" version="1" viewBox="549.4 792.2 2416.6 2267.5" width="2416.6" zoomAndPan="magnify"><g id="change1_1"><path d="M6078 28075 c-3 -4 -23 -8 -43 -11 -20 -2 -47 -10 -59 -16 -11 -7 -25 -12 -29 -13 -14 0 -116 -105 -122 -126 -4 -10 -10 -19 -15 -19 -5 0 -12 -10 -16 -22 -5 -13 -9 -25 -10 -28 -1 -3 -5 -15 -9 -27 -4 -13 -11 -23 -16 -23 -5 0 -9 -7 -9 -15 0 -8 -4 -23 -9 -33 -18 -35 -31 -68 -47 -122 -9 -30 -21 -60 -25 -66 -5 -6 -6 -13 -3 -17 3 -3 -2 -16 -10 -29 -9 -14 -13 -28 -10 -31 4 -4 1 -13 -6 -22 -7 -8 -10 -21 -7 -29 3 -7 -1 -26 -9 -40 -7 -15 -13 -30 -13 -34 1 -4 0 -9 -1 -12 -1 -3 -3 -14 -5 -25 -6 -36 -10 -50 -18 -62 -5 -8 -3 -13 5 -13 10 0 10 -2 -1 -9 -8 -5 -11 -16 -8 -25 3 -8 0 -28 -8 -43 -8 -15 -12 -35 -9 -45 2 -9 0 -20 -7 -23 -8 -6 -8 -9 0 -14 8 -6 8 -17 -3 -42 -8 -19 -14 -50 -15 -69 -1 -42 -4 -61 -14 -77 -4 -6 -3 -14 3 -18 6 -4 8 -11 4 -16 -11 -19 -22 -122 -29 -294 -3 -60 -7 -127 -9 -147 -2 -21 0 -40 5 -44 5 -3 6 -11 2 -17 -4 -6 -7 -21 -7 -32 0 -11 3 -26 7 -32 4 -6 4 -14 -1 -17 -5 -3 -7 -38 -5 -78 4 -97 6 -112 18 -120 6 -5 6 -11 -1 -18 -6 -6 -8 -28 -5 -53 4 -23 6 -61 6 -84 -1 -24 3 -43 8 -43 5 0 6 -11 3 -25 -4 -14 -4 -31 0 -37 4 -6 8 -29 10 -52 2 -22 8 -75 15 -116 6 -41 12 -84 13 -95 1 -11 5 -36 9 -55 11 -57 18 -103 22 -136 5 -42 9 -58 15 -64 3 -3 12 -41 19 -85 7 -44 22 -114 33 -155 11 -41 27 -104 35 -140 8 -36 16 -69 17 -75 16 -59 20 -72 28 -81 5 -7 8 -16 6 -20 -2 -11 21 -122 32 -149 4 -11 16 -49 26 -85 10 -36 21 -67 24 -70 3 -3 12 -34 19 -70 7 -36 17 -67 22 -68 5 -2 7 -7 4 -12 -4 -6 44 -152 98 -300 13 -34 40 -125 39 -127 -1 -2 7 -19 18 -38 11 -20 20 -46 20 -60 0 -13 5 -27 10 -30 6 -3 10 -15 10 -27 0 -14 5 -18 16 -14 11 4 14 1 10 -12 -3 -9 8 -53 25 -97 17 -44 33 -92 36 -108 3 -15 14 -34 25 -41 11 -8 17 -19 13 -25 -3 -6 2 -30 13 -54 11 -23 32 -70 48 -104 16 -35 32 -63 36 -63 4 0 5 -7 2 -15 -4 -8 -1 -15 5 -15 6 0 11 -8 11 -19 0 -10 11 -35 25 -55 14 -20 25 -43 25 -51 0 -8 4 -15 9 -15 5 0 12 -13 16 -30 4 -16 11 -32 16 -35 5 -4 9 -15 9 -26 0 -10 5 -19 10 -19 6 0 10 -7 10 -15 0 -8 4 -15 9 -15 5 0 12 -15 15 -34 4 -19 13 -36 20 -39 8 -3 17 -19 21 -36 3 -16 21 -45 39 -65 19 -19 37 -47 41 -63 3 -15 20 -48 36 -72 15 -24 26 -48 23 -52 -3 -5 2 -9 10 -9 9 0 16 -8 16 -19 0 -11 11 -32 24 -48 13 -15 33 -47 45 -70 12 -24 25 -43 29 -43 4 0 13 -13 20 -29 7 -16 23 -40 36 -53 12 -12 30 -40 40 -61 10 -21 28 -42 42 -47 14 -6 24 -16 23 -22 -3 -26 2 -38 26 -62 14 -14 25 -30 25 -36 0 -6 11 -22 25 -36 14 -14 25 -28 25 -32 0 -4 16 -25 35 -47 19 -22 35 -43 35 -47 0 -4 12 -13 28 -20 18 -9 28 -22 30 -41 2 -20 8 -27 18 -23 10 4 14 -2 14 -19 0 -16 6 -25 15 -25 8 0 15 -4 15 -10 0 -5 7 -10 15 -10 8 0 15 -9 15 -20 0 -11 6 -20 14 -20 8 0 17 -12 20 -26 5 -17 12 -24 21 -20 10 4 15 -1 15 -15 0 -21 36 -58 56 -59 7 0 15 -12 18 -26 5 -17 12 -24 21 -20 10 3 15 -1 15 -13 0 -22 65 -91 85 -91 8 0 17 -9 20 -21 12 -36 110 -130 129 -123 12 5 20 -2 29 -25 9 -26 17 -32 34 -28 12 2 20 1 18 -4 -9 -14 7 -39 25 -39 10 0 23 -7 30 -15 7 -8 19 -15 26 -15 9 0 14 -12 14 -35 0 -28 4 -35 20 -35 13 0 24 -10 30 -26 6 -14 14 -22 20 -19 5 3 10 -1 10 -11 0 -12 6 -15 21 -11 14 4 29 -2 46 -19 13 -13 30 -24 38 -24 8 0 15 -7 15 -15 0 -8 9 -15 20 -15 11 0 21 -7 21 -15 2 -24 4 -29 19 -52 8 -13 19 -23 25 -23 6 0 18 -9 28 -20 9 -11 23 -20 30 -20 7 0 19 -9 27 -20 8 -11 22 -20 32 -20 10 0 18 -7 18 -15 0 -9 17 -20 45 -27 34 -9 48 -19 58 -41 8 -19 18 -26 30 -23 9 2 17 0 17 -5 0 -5 9 -9 20 -9 13 0 20 -7 20 -20 0 -13 12 -28 30 -38 16 -9 30 -23 30 -29 0 -9 7 -10 23 -4 31 12 56 -3 73 -44 11 -26 18 -32 34 -28 16 4 23 0 27 -16 3 -14 11 -20 20 -17 7 3 16 -1 20 -10 3 -8 11 -13 18 -10 14 5 55 -28 55 -44 0 -5 13 -8 28 -6 23 2 31 -2 41 -24 8 -20 22 -30 46 -34 20 -4 35 -13 35 -21 0 -16 35 -29 52 -19 8 5 9 2 5 -11 -6 -15 -3 -17 19 -12 20 3 28 0 31 -14 4 -15 9 -16 31 -8 15 6 24 7 20 4 -7 -7 27 -45 41 -45 5 0 11 -9 14 -21 5 -17 9 -19 26 -10 18 10 21 8 27 -13 4 -17 11 -22 25 -19 11 3 19 0 19 -7 0 -7 7 -10 14 -7 9 4 17 -2 21 -14 4 -10 15 -19 26 -19 10 0 19 -4 19 -10 0 -5 12 -10 28 -10 47 0 72 -11 72 -32 0 -16 3 -17 20 -8 14 7 20 7 20 0 0 -5 6 -10 14 -10 8 0 18 -9 21 -20 3 -11 15 -20 26 -20 10 0 19 -4 19 -10 0 -5 7 -10 15 -10 8 0 15 -4 15 -10 0 -5 6 -10 14 -10 8 0 16 -4 18 -10 2 -5 21 -12 43 -15 22 -4 45 -13 52 -22 7 -9 19 -13 29 -9 9 3 22 2 28 -2 6 -5 23 -12 38 -16 16 -3 27 -12 25 -19 -1 -6 4 -11 11 -9 6 1 11 -1 11 -5 -4 -27 2 -33 22 -23 17 10 21 8 26 -9 4 -18 53 -39 76 -33 4 1 7 -2 7 -7 0 -5 18 -7 40 -5 30 3 40 0 40 -11 0 -8 6 -12 14 -9 8 3 16 -3 19 -15 3 -13 13 -21 26 -21 12 0 21 -5 21 -11 0 -5 4 -7 10 -4 5 3 25 -5 42 -18 25 -19 41 -24 67 -20 31 5 33 4 29 -15 -5 -18 -2 -20 27 -17 28 2 33 0 28 -14 -5 -13 -3 -14 8 -3 14 13 49 17 49 5 0 -14 64 -46 86 -44 11 1 26 -5 33 -12 6 -9 21 -13 32 -10 15 4 30 -5 54 -30 19 -20 37 -32 40 -27 8 13 35 0 35 -17 0 -13 2 -13 17 -2 11 10 14 10 9 2 -4 -7 -4 -18 -1 -23 9 -15 37 8 29 24 -3 6 2 2 10 -8 9 -11 16 -24 16 -29 0 -4 4 -6 9 -3 5 4 12 0 14 -6 3 -8 6 -5 6 5 1 11 7 17 14 14 6 -2 11 -10 9 -16 -1 -6 2 -11 8 -11 5 0 10 5 10 10 0 6 6 10 14 10 9 0 13 -7 11 -17 -3 -18 8 -22 80 -24 31 -2 58 -21 47 -35 -4 -5 0 -3 10 4 11 9 18 10 23 2 4 -6 14 -10 23 -9 44 4 53 -1 46 -23 -6 -21 -6 -21 18 -6 18 12 27 13 39 4 9 -6 14 -17 11 -24 -3 -11 0 -12 18 -2 18 9 24 9 30 0 5 -7 15 -10 23 -7 9 3 18 1 20 -6 2 -7 21 -13 43 -14 80 -4 83 -6 73 -26 -10 -17 -9 -17 21 -2 28 15 31 15 38 -2 4 -10 13 -18 20 -19 45 -4 48 -5 27 -14 -16 -7 -17 -9 -3 -9 9 -1 18 -6 20 -13 5 -14 48 -22 48 -8 0 6 7 10 15 10 8 0 15 5 15 10 0 6 6 10 13 10 14 0 47 -35 47 -50 0 -6 5 -10 11 -10 5 0 7 4 4 10 -4 7 2 7 18 1 14 -6 28 -7 31 -4 12 12 6 -13 -6 -27 -11 -12 -10 -12 3 -2 20 15 59 4 59 -17 0 -14 2 -14 10 -1 5 8 10 11 10 7 0 -5 7 -1 15 7 13 13 20 13 35 3 12 -7 18 -18 15 -29 -3 -9 -1 -19 5 -23 5 -3 10 -1 10 4 0 6 6 11 14 11 8 0 17 6 19 13 4 9 6 9 6 -1 1 -7 6 -10 11 -7 13 8 13 -8 0 -21 -7 -7 0 -9 22 -6 18 3 27 7 20 9 -6 3 -10 8 -7 13 9 14 95 -39 89 -55 -7 -18 21 -13 47 8 16 14 23 15 39 5 11 -7 20 -20 20 -29 0 -12 6 -16 20 -12 11 3 20 9 20 14 0 5 7 9 16 9 11 0 14 -6 9 -22 -3 -13 -3 -18 2 -13 10 13 23 13 42 1 10 -7 12 -6 6 4 -6 10 -4 12 8 7 10 -3 17 -2 17 3 0 6 4 10 9 10 11 0 26 -39 22 -59 -1 -8 7 -5 20 8 24 22 49 28 49 10 0 -5 -4 -8 -8 -5 -5 3 -9 -1 -9 -9 0 -12 3 -12 15 -3 11 10 17 9 26 -3 12 -18 39 -14 30 4 -3 7 3 2 15 -11 11 -13 22 -18 26 -12 3 5 11 10 16 10 6 0 7 -4 4 -10 -8 -14 1 -13 25 3 17 10 22 9 30 -2 7 -12 11 -12 23 -2 11 8 17 9 22 1 3 -6 10 -8 15 -5 5 3 11 1 15 -5 4 -6 11 -8 16 -5 5 4 9 -6 9 -20 0 -15 4 -24 10 -20 6 4 8 11 5 16 -4 5 -2 9 4 9 5 0 12 -6 14 -12 3 -8 6 -5 6 5 1 10 6 15 11 12 6 -4 8 -11 5 -16 -4 -5 -1 -9 5 -9 6 0 8 -4 5 -10 -13 -20 14 -9 29 12 9 12 16 17 16 10 0 -8 5 -10 12 -6 8 5 9 0 5 -15 -3 -15 -1 -21 6 -18 7 3 11 9 10 14 -1 5 9 10 22 11 19 1 23 -2 18 -15 -5 -13 -3 -15 13 -9 38 15 52 15 50 -2 0 -9 4 -16 11 -15 7 2 10 -3 7 -11 -4 -11 4 -10 33 5 35 18 39 18 50 3 7 -9 17 -13 24 -8 8 4 10 3 5 -4 -4 -7 -2 -12 3 -12 6 0 11 3 11 8 0 4 9 13 19 19 17 10 18 9 14 -10 -4 -18 -3 -19 6 -7 8 10 13 12 19 4 4 -6 14 -14 22 -17 12 -4 11 -6 -2 -6 -10 -1 -18 -5 -18 -10 0 -14 44 -7 57 9 10 13 15 13 44 -4 30 -18 33 -18 44 -2 15 20 29 20 49 0 9 -8 16 -11 16 -5 0 6 15 2 33 -9 34 -21 62 -27 52 -10 -13 21 13 9 30 -14 17 -23 20 -23 32 -8 13 15 13 14 7 -8 -3 -14 -3 -22 1 -18 5 4 15 2 23 -5 13 -9 14 -9 8 1 -4 7 -2 12 8 12 8 0 19 7 23 15 8 13 11 13 32 -1 12 -9 20 -22 17 -30 -6 -16 19 -19 29 -4 10 16 45 12 39 -4 -4 -10 0 -13 13 -11 10 2 22 4 26 4 5 1 6 5 2 10 -3 6 6 6 24 1 17 -5 41 -7 55 -6 14 2 23 -1 20 -5 -3 -5 0 -9 5 -9 6 0 11 5 11 11 0 5 5 7 10 4 6 -3 10 -15 10 -26 0 -25 18 -24 40 1 16 18 18 19 24 4 6 -15 9 -15 27 4 20 23 30 27 28 15 -3 -20 2 -31 17 -37 8 -3 12 -2 9 3 -3 6 7 6 25 1 19 -5 28 -5 25 1 -4 5 3 9 14 9 12 0 21 -4 21 -10 0 -5 8 -10 18 -10 13 0 14 -2 3 -9 -9 -6 -10 -11 -2 -15 6 -4 16 2 23 14 7 11 16 20 21 20 4 0 6 -4 2 -9 -3 -5 -1 -12 5 -16 5 -3 10 -1 10 4 0 6 5 11 11 11 6 0 9 -6 6 -14 -4 -11 1 -13 23 -11 23 3 28 1 24 -13 -5 -15 -4 -15 6 1 6 9 15 17 20 17 5 0 6 -8 3 -17 -6 -16 -5 -17 12 -3 17 14 18 13 12 -4 -6 -16 -5 -17 8 -6 8 7 12 16 9 21 -3 5 2 6 10 3 8 -3 14 -11 12 -17 -1 -7 -1 -9 1 -4 3 4 10 4 16 0 7 -4 8 0 4 11 -4 9 -3 14 2 11 5 -3 12 -1 16 5 10 16 46 12 62 -7 8 -10 12 -13 9 -6 -4 7 1 9 14 6 11 -3 17 -9 14 -14 -3 -5 0 -17 6 -26 10 -15 11 -15 6 -1 -4 13 3 16 31 16 24 0 31 -3 22 -8 -21 -14 -3 -23 20 -11 18 10 20 9 15 -6 -5 -16 -4 -16 8 -3 7 8 22 15 33 14 11 0 27 6 37 14 14 12 18 10 33 -22 17 -36 29 -40 53 -18 7 6 19 12 25 12 8 0 8 -3 -1 -9 -10 -6 -10 -10 2 -20 13 -11 18 -10 31 2 11 12 12 17 2 20 -6 2 -1 5 13 5 14 0 37 3 53 5 15 3 25 1 21 -4 -3 -5 0 -9 5 -9 6 0 11 -6 11 -13 0 -7 9 -13 20 -14 18 -2 19 0 5 13 -20 20 -19 23 4 21 11 0 17 -5 14 -11 -4 -5 1 -7 11 -3 14 6 16 3 11 -16 -7 -22 -7 -22 8 -2 9 11 19 17 22 13 4 -4 16 -3 25 2 23 12 45 -12 36 -37 -6 -14 -2 -12 14 5 23 25 40 31 20 7 -7 -9 -10 -19 -6 -22 4 -4 11 -1 15 6 5 8 17 11 29 7 11 -4 23 -2 27 3 3 7 0 8 -9 5 -9 -3 -16 -2 -16 3 0 7 51 9 79 4 2 -1 -2 -8 -9 -16 -7 -9 -10 -18 -6 -22 3 -3 6 -2 6 4 0 6 7 13 14 16 11 4 13 1 9 -11 -4 -11 5 -6 25 12 28 26 32 27 38 12 4 -9 13 -15 21 -12 11 5 11 2 2 -16 l-11 -21 30 22 c19 13 33 17 37 11 3 -5 0 -10 -7 -11 -7 0 -4 -4 7 -9 14 -5 24 -3 32 7 7 9 13 11 18 4 3 -6 11 -11 16 -11 6 0 8 4 5 9 -3 4 6 6 20 3 18 -3 22 -7 13 -13 -8 -4 -10 -11 -7 -15 4 -3 23 4 43 16 28 17 39 20 48 11 9 -9 7 -11 -8 -5 -11 4 -17 4 -14 0 11 -11 49 -15 49 -5 0 6 7 3 16 -5 8 -9 27 -16 42 -16 25 0 25 1 6 15 -18 14 -18 15 6 6 14 -4 31 -7 38 -5 7 1 8 0 2 -3 -5 -2 -10 -12 -10 -20 0 -11 6 -8 20 10 19 24 21 24 54 9 21 -9 32 -20 29 -29 -6 -15 13 -18 22 -2 4 6 13 8 21 5 8 -3 14 -1 14 4 0 16 61 7 73 -11 10 -16 13 -15 44 8 27 21 36 23 48 13 8 -7 12 -16 9 -21 -8 -14 40 -11 55 4 11 10 13 10 7 0 -9 -16 6 -17 22 -1 9 9 15 9 25 -1 10 -10 9 -11 -5 -6 -13 5 -18 2 -18 -9 0 -14 4 -15 21 -6 11 6 22 17 25 25 5 12 45 18 41 5 -3 -9 41 -49 47 -43 3 4 1 12 -5 19 -8 9 -5 11 10 7 12 -3 18 -9 15 -14 -3 -5 -1 -9 5 -9 5 0 14 7 19 17 6 11 16 14 28 9 14 -5 15 -9 5 -15 -10 -6 -9 -10 4 -14 9 -4 13 -3 10 3 -3 6 -1 10 6 10 6 0 17 7 24 16 10 15 13 15 28 0 9 -9 22 -15 29 -14 8 2 12 -5 11 -19 -2 -15 3 -23 12 -23 8 0 15 4 15 9 0 14 29 21 36 9 5 -7 2 -8 -7 -3 -8 5 -10 4 -6 0 10 -11 37 -16 37 -6 0 4 13 14 29 24 25 15 30 15 41 2 9 -11 16 -12 26 -4 9 8 17 4 29 -15 18 -27 45 -35 45 -13 0 8 4 7 10 -3 5 -8 10 -10 10 -4 0 7 7 15 16 18 15 6 15 4 3 -10 -12 -15 -11 -16 11 -9 14 4 34 13 45 19 22 14 49 10 39 -5 -8 -14 13 -11 28 4 20 21 47 17 43 -6 -4 -15 -2 -17 10 -7 8 7 12 16 9 21 -10 17 29 9 41 -8 10 -13 16 -14 26 -6 15 11 48 14 47 4 -3 -28 5 -33 16 -11 8 14 12 29 8 35 -3 5 2 4 11 -4 9 -7 17 -10 17 -6 0 4 8 1 17 -6 11 -9 14 -10 9 -2 -5 9 -2 11 9 7 11 -5 13 -10 5 -19 -9 -11 -5 -13 15 -11 24 3 25 2 9 -15 -15 -16 -14 -17 5 -12 12 3 21 9 21 12 0 4 15 7 34 7 19 0 32 -4 30 -8 -9 -14 7 -8 23 8 13 13 17 13 24 2 5 -7 9 -8 9 -2 0 6 7 11 15 11 13 0 13 -2 0 -17 -8 -9 -15 -21 -15 -26 0 -5 5 -1 11 9 13 22 30 22 22 0 -7 -17 -6 -17 19 -1 18 12 29 14 33 7 5 -7 11 -7 19 0 7 6 16 8 19 4 4 -3 7 1 7 10 0 18 17 22 39 8 8 -5 11 -18 7 -32 -3 -13 -3 -18 0 -11 3 6 12 12 19 12 7 0 15 5 17 12 5 14 38 20 38 7 0 -6 4 -8 9 -4 5 3 13 0 17 -6 4 -8 3 -9 -4 -5 -7 4 -12 2 -12 -4 0 -8 9 -10 25 -6 14 4 25 2 25 -3 0 -5 7 -12 16 -15 12 -4 15 -2 11 9 -4 8 -2 17 4 20 5 4 13 -4 18 -17 9 -20 16 -10 12 15 -1 5 3 6 8 2 6 -3 8 -12 4 -20 -3 -9 1 -15 11 -15 9 0 16 5 16 10 0 6 9 10 19 10 11 0 22 4 25 9 3 5 15 7 26 4 17 -5 18 -8 8 -21 -12 -14 -10 -14 12 -2 14 8 28 13 33 12 4 -1 7 2 7 8 0 5 7 7 16 3 15 -5 15 -7 0 -15 -9 -5 -16 -14 -16 -20 0 -7 5 -7 14 1 11 9 15 9 19 -1 4 -8 8 -9 14 -3 4 6 17 17 28 25 20 15 20 14 1 -8 -24 -27 -13 -28 24 -2 15 11 29 17 32 15 9 -9 79 -14 73 -5 -3 4 1 7 7 6 24 -3 37 -17 31 -31 -6 -17 12 -21 22 -5 4 6 10 8 15 5 5 -3 16 5 24 17 9 12 16 18 16 12 0 -6 7 -11 15 -11 8 0 15 5 15 11 0 7 3 7 8 1 4 -5 14 -10 22 -10 10 0 14 -8 13 -23 -2 -19 -1 -21 11 -10 8 7 12 16 9 20 -2 4 3 5 11 2 8 -3 12 -13 9 -22 -3 -11 -2 -13 4 -5 4 6 17 11 28 10 11 -1 19 3 18 9 -1 7 6 10 17 7 11 -3 20 -13 20 -22 0 -12 2 -13 9 -3 6 11 11 10 25 -3 9 -9 16 -11 16 -5 0 6 4 9 9 5 6 -3 16 1 23 8 7 8 21 12 31 9 13 -3 15 -7 7 -12 -8 -5 -9 -10 -2 -14 6 -3 20 10 32 29 l22 35 19 -24 c10 -13 19 -32 19 -43 1 -17 2 -17 18 2 9 11 25 21 36 22 13 1 15 -2 7 -10 -21 -21 -11 -27 16 -10 15 10 24 13 20 6 -4 -6 -3 -14 2 -17 5 -3 12 4 15 17 6 20 7 20 17 5 5 -10 21 -18 34 -18 14 0 25 -5 25 -11 0 -6 7 -3 16 5 20 21 25 20 18 -1 -4 -13 0 -11 13 5 16 19 23 21 43 13 14 -5 19 -10 11 -10 -11 -1 -11 -4 -1 -16 10 -12 15 -13 21 -3 4 6 5 16 3 20 -3 4 2 5 10 2 9 -3 16 -1 16 6 0 6 4 9 9 5 5 -3 12 -1 16 5 3 5 11 10 16 10 6 0 7 -6 3 -12 -5 -8 0 -7 11 2 15 12 17 12 10 1 -6 -11 -4 -13 10 -8 9 4 24 2 31 -4 7 -6 17 -8 22 -5 6 3 12 -4 16 -17 5 -18 8 -19 15 -7 9 12 11 12 17 -3 6 -16 8 -17 31 -2 14 9 27 14 31 11 3 -3 0 -6 -6 -6 -7 0 -12 -8 -12 -17 0 -14 4 -12 25 7 14 13 25 20 25 15 0 -5 7 0 15 11 13 18 14 18 9 -6 -4 -25 -4 -25 7 -2 17 32 35 26 30 -10 -1 -10 47 -2 62 11 15 11 80 4 72 -8 -2 -4 0 -13 5 -20 6 -10 9 -9 14 7 6 19 9 20 40 7 18 -8 36 -11 40 -8 4 4 9 -3 13 -15 5 -21 6 -21 19 -5 12 16 12 16 7 -7 l-6 -25 30 28 c16 15 38 27 49 27 14 0 16 -2 6 -9 -10 -6 -7 -10 13 -15 19 -5 33 -2 47 11 11 9 19 13 18 8 -2 -6 -2 -18 -1 -28 1 -14 5 -16 20 -7 11 5 28 10 38 10 15 0 16 -2 3 -10 -8 -5 -11 -10 -6 -10 5 0 18 8 29 18 11 9 17 11 13 5 -5 -9 0 -13 13 -13 10 0 21 -3 24 -7 2 -5 2 -3 1 4 -4 15 11 20 52 15 31 -4 33 -6 17 -17 -24 -18 -11 -30 16 -15 12 6 25 8 30 5 5 -3 12 1 14 7 4 9 8 10 14 2 4 -6 18 -16 31 -23 18 -10 25 -9 39 4 12 12 18 13 23 4 5 -8 10 -5 14 9 4 11 13 23 22 26 17 6 54 -27 54 -49 0 -9 6 -12 15 -9 8 4 13 10 10 14 -3 4 2 11 10 14 9 3 20 -3 27 -14 9 -14 16 -16 25 -8 10 8 13 6 13 -8 0 -14 3 -15 8 -6 5 7 19 14 31 17 18 3 20 1 12 -9 -17 -21 0 -28 22 -9 11 10 17 12 13 6 -10 -18 2 -16 20 2 20 20 40 20 24 0 -7 -9 -10 -18 -6 -22 3 -3 6 0 6 8 0 11 2 11 10 -1 8 -13 10 -13 10 1 0 9 7 16 14 16 12 0 13 -5 5 -19 -10 -18 -9 -19 20 -3 29 14 30 14 25 -2 -4 -11 -2 -14 3 -8 4 6 18 16 31 23 20 11 22 10 23 -10 0 -22 1 -22 9 -3 8 18 9 18 9 -5 1 -20 3 -22 11 -10 8 13 10 13 10 1 0 -12 3 -12 12 -3 15 15 32 16 23 2 -3 -5 -1 -10 4 -10 6 0 11 6 11 13 0 8 4 7 10 -3 9 -13 10 -13 10 0 0 9 9 16 21 17 14 1 19 -3 15 -12 -9 -25 14 -28 38 -6 18 17 28 20 46 13 l24 -9 -22 -5 c-12 -4 -22 -12 -22 -20 0 -10 3 -9 10 2 9 13 10 13 10 0 0 -12 2 -13 9 -1 12 18 61 24 55 6 -9 -22 26 -26 49 -5 23 22 38 22 45 0 3 -7 0 -10 -6 -6 -5 3 -13 -1 -16 -9 -4 -13 -2 -14 14 -5 11 6 20 15 20 21 0 6 4 8 10 4 5 -3 6 -13 3 -23 -6 -15 -4 -15 15 2 14 12 27 16 39 11 10 -5 24 -7 32 -6 8 1 10 -2 5 -10 -4 -8 -3 -10 5 -5 9 6 9 11 1 21 -10 12 -7 13 12 9 12 -4 31 -7 40 -7 9 -1 14 -5 12 -9 -3 -4 -1 -8 5 -8 6 0 8 -8 5 -17 -4 -11 -3 -14 3 -7 4 6 21 14 37 18 24 6 28 4 22 -10 -5 -14 -4 -15 9 -4 12 10 15 9 15 -5 0 -16 2 -16 23 -2 12 8 21 20 20 26 -3 13 16 10 33 -4 9 -7 9 -12 0 -17 -7 -5 -5 -8 7 -8 9 0 17 -6 17 -12 0 -8 3 -9 8 -3 7 10 17 14 62 23 14 3 21 1 17 -4 -5 -5 -16 -9 -24 -9 -9 0 -18 -7 -20 -15 -3 -9 -1 -11 4 -4 10 13 53 13 53 0 0 -5 7 -1 15 10 8 11 15 14 15 7 0 -7 5 -13 11 -13 5 0 7 5 3 11 -4 8 -1 8 12 1 11 -6 32 -8 47 -5 23 5 29 1 34 -16 3 -11 9 -18 14 -15 5 3 7 9 4 14 -3 4 3 7 12 5 10 -1 17 -10 17 -19 -1 -9 4 -16 12 -16 8 0 14 3 14 8 0 4 10 13 21 21 17 10 23 10 29 0 5 -7 6 -18 3 -26 -7 -18 12 -17 27 2 7 9 15 13 18 10 3 -2 11 3 18 13 10 12 13 13 14 3 0 -11 3 -11 14 -2 12 10 19 8 35 -8 12 -12 16 -21 10 -21 -8 0 -8 -4 1 -15 17 -20 79 -11 96 14 16 23 42 21 60 -3 7 -10 18 -15 26 -11 7 3 5 0 -4 -8 -10 -8 -18 -17 -18 -20 0 -8 43 -5 55 4 6 4 17 4 25 -1 21 -13 38 -12 20 1 -12 9 -11 10 8 6 12 -3 22 -1 22 4 0 4 7 6 15 3 12 -5 10 -10 -8 -26 l-22 -19 23 11 c13 6 26 18 29 26 4 12 7 12 18 -3 7 -9 11 -23 8 -30 -3 -7 0 -13 6 -13 6 0 11 6 11 13 0 8 3 8 8 2 8 -12 27 -13 38 -2 4 4 14 7 22 7 11 0 12 -3 3 -14 -8 -10 -9 -16 -1 -21 5 -3 10 -2 10 3 0 12 31 25 39 17 3 -3 -1 -11 -9 -16 -12 -9 -10 -9 5 -3 11 4 31 7 44 7 18 -1 20 1 10 8 -10 6 -8 9 11 10 14 1 36 1 48 0 16 -1 21 2 16 10 -4 8 -3 9 5 5 6 -4 10 -10 8 -14 -2 -4 4 -15 14 -24 15 -14 18 -14 23 -2 3 8 2 13 -2 10 -5 -3 -9 1 -9 9 0 11 4 12 13 4 7 -6 17 -8 22 -5 6 3 15 -1 22 -9 7 -8 16 -12 22 -9 16 10 39 -18 33 -40 -3 -12 -2 -16 1 -9 3 7 12 9 20 6 8 -3 21 0 29 7 12 10 16 7 25 -15 8 -22 13 -25 24 -16 11 9 15 9 19 -1 4 -10 6 -10 6 0 1 6 10 12 21 12 11 0 20 5 20 11 0 5 5 7 10 4 6 -4 7 -11 4 -17 -5 -7 -1 -9 9 -5 9 3 19 1 23 -5 4 -7 3 -8 -4 -4 -7 4 -12 3 -12 -3 0 -5 5 -13 10 -16 6 -3 10 -1 10 4 0 6 8 11 17 11 15 0 14 2 -3 15 -17 13 -16 13 13 3 22 -8 29 -16 23 -22 -6 -6 -10 -15 -10 -20 1 -6 10 0 20 13 11 13 20 19 20 15 0 -5 5 -1 11 9 5 9 15 17 22 17 7 0 6 -4 -3 -10 -11 -7 -11 -10 -2 -10 8 0 10 -5 6 -12 -5 -9 -2 -8 10 1 14 12 19 12 29 1 8 -9 8 -11 0 -6 -7 4 -9 -1 -6 -14 6 -21 6 -21 20 -1 15 22 48 17 39 -6 -5 -11 2 -12 31 -7 25 5 34 3 29 -4 -4 -6 -13 -9 -21 -5 -8 3 -15 0 -15 -6 0 -6 6 -11 14 -11 22 0 46 11 42 19 -3 4 7 7 21 7 23 0 24 -1 6 -14 -17 -14 -17 -14 2 -7 52 18 69 13 43 -13 -9 -9 -9 -12 -1 -12 7 0 15 4 18 10 8 12 74 10 82 -3 3 -6 1 -7 -5 -3 -7 4 -12 2 -12 -5 0 -6 8 -9 20 -6 11 3 23 1 26 -4 3 -5 11 -9 17 -9 7 0 6 4 -3 10 -13 8 -13 11 -1 22 8 7 11 8 8 2 -4 -7 0 -15 9 -18 8 -3 12 -2 9 4 -3 6 -2 10 4 10 14 0 29 -32 24 -47 -7 -19 5 -16 39 8 17 12 33 18 37 13 3 -5 15 -10 26 -12 41 -6 77 -25 63 -33 -7 -4 -10 -10 -7 -14 3 -3 18 5 34 17 l27 21 -7 -24 c-6 -19 -5 -22 5 -12 17 16 54 -3 46 -23 -4 -11 3 -9 24 6 18 13 30 17 30 9 0 -9 3 -9 14 0 28 24 70 2 60 -31 -2 -9 1 -20 7 -24 8 -4 9 -3 5 4 -5 8 -2 10 8 6 9 -3 13 -11 9 -18 -4 -6 -1 -6 9 2 13 10 17 10 22 -5 4 -10 10 -13 14 -8 12 16 46 32 60 27 10 -3 8 -8 -5 -19 -15 -13 -14 -12 8 0 23 14 29 14 45 1 14 -10 15 -13 3 -9 -9 3 -21 0 -27 -8 -9 -11 -6 -13 18 -9 17 2 30 9 30 15 0 6 6 3 13 -7 13 -17 52 -13 41 5 -3 5 2 6 10 3 9 -3 14 -10 11 -14 -3 -5 -2 -15 1 -24 5 -13 9 -14 21 -5 11 10 11 14 1 21 -9 5 -5 7 10 5 13 -2 36 -15 50 -29 17 -16 36 -24 52 -22 14 1 19 0 13 -2 -20 -9 -15 -21 7 -19 11 1 32 12 47 26 15 13 22 16 15 7 -11 -14 -10 -18 9 -29 18 -9 24 -9 27 0 3 9 7 9 18 0 12 -10 12 -13 -2 -24 -12 -8 -14 -14 -6 -19 7 -4 12 -2 12 3 0 6 7 11 15 11 7 0 18 7 23 16 8 14 10 14 26 -2 14 -14 15 -19 4 -26 -8 -6 -1 -7 20 -3 27 6 32 4 32 -12 0 -11 3 -14 8 -7 11 16 41 24 47 14 4 -6 1 -10 -6 -10 -7 0 -9 -3 -6 -6 4 -4 13 -2 21 5 9 8 21 8 39 2 33 -13 42 -28 25 -48 -8 -10 -8 -14 -1 -10 6 4 14 3 18 -3 10 -17 25 -11 18 7 -5 12 -3 14 8 7 8 -4 25 -7 38 -5 13 1 21 -1 17 -7 -3 -6 2 -8 13 -5 11 3 28 0 38 -7 16 -10 16 -10 -4 -5 -14 4 -23 2 -23 -4 0 -6 12 -11 26 -11 16 0 23 -4 18 -12 -4 -7 -3 -8 5 -4 6 4 9 11 6 16 -3 5 0 12 6 16 8 4 9 3 5 -4 -4 -7 7 -13 29 -18 19 -3 35 -10 35 -16 0 -5 -4 -7 -8 -4 -5 3 -9 -1 -9 -9 0 -19 5 -19 25 1 13 14 17 14 21 3 7 -22 23 -28 45 -17 19 10 20 10 7 -6 -13 -15 -12 -17 12 -12 17 3 27 0 27 -7 0 -8 3 -7 9 2 5 8 16 11 30 6 12 -3 18 -11 15 -17 -4 -6 -10 -5 -15 3 -6 10 -9 10 -9 2 0 -7 9 -17 20 -23 16 -9 20 -8 21 7 0 11 3 13 6 5 4 -10 8 -10 19 -2 8 7 26 9 45 5 27 -6 29 -9 16 -17 -9 -5 -17 -14 -17 -21 0 -8 2 -9 8 -1 8 13 42 14 42 2 0 -5 5 -6 11 -2 8 4 8 0 0 -15 -14 -26 3 -29 18 -3 9 16 10 16 16 0 4 -10 11 -15 16 -12 14 8 11 26 -3 18 -10 -5 -10 -4 -1 6 9 9 16 7 34 -11 13 -13 23 -29 21 -34 -1 -6 8 -12 20 -12 13 -1 24 -7 26 -12 2 -5 11 -7 20 -4 15 6 16 5 2 -12 -15 -17 -14 -18 18 -1 33 17 34 17 39 -3 3 -12 10 -21 15 -21 5 0 6 5 3 10 -3 6 -1 10 4 10 6 0 11 -4 11 -9 0 -5 16 -12 35 -15 19 -4 38 -14 43 -23 6 -10 12 -12 16 -5 5 8 15 8 34 1 15 -6 29 -11 32 -12 13 -4 40 -32 40 -42 0 -5 -5 -3 -10 5 -7 12 -9 10 -7 -8 1 -23 12 -29 21 -13 3 5 15 7 26 4 16 -4 18 -8 9 -19 -18 -22 5 -17 37 8 15 13 25 17 21 11 -5 -8 1 -15 17 -19 31 -7 52 -29 36 -39 -5 -3 -10 -11 -10 -18 0 -8 3 -8 12 1 15 15 45 15 54 0 4 -6 3 -8 -4 -4 -6 3 -14 1 -18 -5 -4 -7 -3 -9 4 -5 5 3 13 0 15 -6 4 -10 6 -10 6 0 1 19 45 14 60 -7 8 -11 20 -17 28 -14 9 4 11 0 7 -11 -3 -9 -1 -16 5 -16 6 0 11 5 11 10 0 16 15 12 40 -10 13 -11 18 -20 12 -20 -7 0 -12 -4 -12 -9 0 -4 16 -7 35 -4 29 3 34 1 28 -13 -4 -12 -3 -15 5 -10 7 4 18 4 24 0 7 -5 27 -7 45 -5 24 2 33 -2 33 -12 0 -14 27 -32 43 -29 4 1 7 -3 7 -8 0 -6 -4 -10 -10 -10 -5 0 -10 -5 -10 -10 0 -7 6 -7 20 0 18 10 24 7 21 -12 0 -4 6 -5 14 -2 8 4 15 1 15 -6 0 -7 8 -9 19 -5 11 3 25 -1 34 -9 8 -8 18 -12 22 -8 3 4 11 -1 16 -11 11 -19 39 -23 39 -6 0 6 5 9 11 7 6 -2 10 -7 10 -11 -1 -10 71 -77 78 -72 4 2 16 -7 26 -21 14 -19 20 -22 27 -12 6 11 8 11 8 0 0 -7 5 -10 12 -6 7 4 8 3 4 -4 -4 -7 -4 -17 0 -24 5 -8 10 -6 15 8 7 17 8 16 8 -6 1 -20 3 -22 11 -10 7 12 10 12 10 1 0 -9 7 -11 23 -7 25 6 57 -22 57 -49 0 -8 3 -14 8 -14 23 4 42 -3 42 -14 0 -9 13 -12 40 -11 22 1 40 -3 40 -7 0 -5 9 -18 20 -29 12 -12 18 -25 15 -30 -8 -13 38 -23 64 -15 15 4 21 2 21 -9 0 -9 6 -13 14 -10 9 3 16 -4 20 -21 7 -27 41 -67 50 -58 3 3 12 -2 21 -11 9 -9 22 -13 28 -9 6 4 8 1 5 -8 -4 -10 2 -15 20 -14 21 0 28 -7 36 -33 8 -29 13 -33 34 -27 20 5 23 3 18 -11 -5 -13 -1 -16 23 -12 27 4 31 1 37 -24 5 -24 10 -29 32 -26 22 2 28 -1 31 -22 4 -31 16 -39 53 -35 23 3 29 0 34 -20 3 -14 12 -25 20 -25 8 0 14 -10 14 -26 0 -20 4 -25 22 -22 16 2 24 -3 26 -16 5 -26 24 -44 55 -51 16 -4 27 -15 29 -28 2 -12 9 -21 16 -20 6 2 12 -2 12 -7 0 -6 6 -10 13 -10 8 0 20 -11 27 -25 8 -14 24 -28 36 -31 13 -3 26 -16 30 -27 8 -26 41 -57 61 -57 12 0 17 -12 14 -32 0 -5 8 -8 19 -8 13 0 20 -7 20 -20 0 -16 6 -20 33 -18 28 3 32 0 35 -24 2 -16 9 -28 18 -28 8 0 14 -4 14 -10 0 -5 7 -10 15 -10 9 0 15 -9 15 -24 0 -16 7 -27 20 -31 11 -3 20 -12 20 -18 0 -17 42 -52 57 -49 8 2 10 -3 7 -13 -5 -11 0 -15 19 -15 21 0 25 -6 31 -40 4 -24 12 -40 20 -40 8 0 17 -7 20 -16 3 -8 10 -13 15 -9 5 3 11 -5 13 -17 2 -17 9 -23 26 -22 12 1 22 -4 21 -10 -5 -40 3 -64 21 -69 11 -3 20 -12 20 -21 0 -9 5 -16 10 -16 6 0 10 -6 10 -14 0 -7 9 -16 20 -19 12 -3 20 -14 20 -26 0 -13 10 -26 25 -33 16 -7 25 -19 25 -35 0 -13 7 -26 15 -29 8 -4 15 -12 15 -20 0 -8 5 -14 11 -14 5 0 7 -4 4 -10 -3 -5 3 -15 15 -22 11 -7 20 -18 20 -24 0 -7 7 -14 15 -18 8 -3 15 -14 15 -25 0 -11 9 -25 20 -31 11 -6 20 -18 20 -28 0 -9 9 -23 20 -30 11 -7 20 -21 20 -32 0 -11 5 -20 10 -20 6 0 10 -7 10 -15 0 -9 7 -18 15 -21 8 -4 15 -12 15 -19 0 -8 6 -20 13 -27 6 -7 22 -34 35 -61 13 -26 28 -45 33 -42 5 4 9 -7 9 -24 0 -16 7 -37 16 -45 8 -9 12 -16 8 -16 -3 0 -1 -6 6 -14 6 -8 18 -12 26 -9 11 4 14 -4 14 -34 0 -27 6 -43 20 -53 12 -8 20 -26 20 -41 0 -15 7 -34 15 -43 8 -8 15 -21 15 -30 0 -8 7 -22 16 -30 8 -9 13 -20 10 -25 -4 -5 1 -16 9 -24 8 -9 15 -25 15 -36 0 -12 5 -21 11 -21 7 0 9 -10 7 -24 -3 -15 2 -27 14 -35 10 -6 18 -20 18 -31 0 -11 5 -20 10 -20 6 0 10 -11 10 -24 0 -14 5 -37 12 -53 6 -15 12 -32 12 -36 1 -4 7 -12 15 -16 8 -5 11 -16 7 -26 -6 -16 9 -55 25 -65 5 -3 10 -21 11 -39 1 -18 8 -36 16 -38 9 -4 11 -15 7 -33 -4 -19 -1 -33 12 -46 10 -10 18 -22 19 -28 3 -45 18 -123 25 -132 6 -7 9 -16 8 -20 -1 -5 0 -11 1 -14 8 -21 50 -211 52 -235 1 -11 6 -26 11 -32 5 -7 7 -20 3 -28 -3 -8 -1 -15 4 -15 5 0 8 -15 7 -32 -2 -18 0 -40 4 -49 5 -9 9 -33 11 -53 1 -20 8 -42 14 -47 8 -7 11 -33 9 -75 -2 -43 1 -64 9 -64 8 0 8 -2 0 -8 -13 -8 -9 -45 5 -50 7 -2 7 -12 0 -29 -6 -17 -6 -30 0 -36 5 -5 7 -16 4 -24 -3 -8 0 -18 7 -23 9 -5 9 -13 2 -26 -6 -12 -7 -36 -2 -63 4 -24 4 -57 -1 -74 -5 -18 -4 -37 2 -48 9 -17 7 -66 -5 -126 -3 -13 0 -23 5 -23 6 0 6 -7 -1 -19 -7 -13 -7 -22 0 -26 7 -4 7 -12 0 -25 -7 -13 -7 -21 0 -25 6 -4 8 -10 5 -15 -3 -4 -7 -27 -10 -50 -3 -22 -6 -44 -7 -48 -1 -4 2 -22 6 -40 5 -22 4 -38 -4 -48 -8 -8 -11 -30 -7 -52 2 -21 1 -46 -5 -55 -5 -9 -9 -37 -10 -62 0 -25 -4 -47 -8 -50 -9 -5 -6 -36 5 -54 5 -9 3 -18 -6 -25 -8 -6 -16 -35 -18 -66 -2 -30 -6 -59 -9 -65 -4 -5 -8 -17 -9 -25 -9 -41 -15 -78 -18 -105 -1 -16 -5 -37 -8 -45 -22 -58 -37 -114 -37 -135 0 -23 -6 -41 -37 -113 -8 -18 -11 -36 -8 -41 3 -5 0 -13 -6 -16 -6 -4 -8 -18 -5 -31 5 -17 2 -26 -9 -30 -12 -5 -14 -14 -10 -34 3 -16 1 -31 -4 -35 -15 -9 -53 -94 -47 -104 3 -5 -1 -14 -9 -21 -7 -6 -11 -18 -8 -27 4 -9 -1 -20 -12 -25 -14 -8 -15 -12 -4 -19 11 -6 9 -13 -9 -32 -12 -13 -22 -29 -22 -35 0 -7 -7 -24 -16 -37 -9 -14 -14 -31 -11 -39 3 -8 -3 -22 -14 -31 -12 -12 -17 -25 -13 -40 4 -15 -2 -31 -20 -50 -15 -16 -26 -40 -26 -55 0 -15 -10 -36 -25 -50 -17 -16 -23 -31 -21 -47 3 -15 -4 -34 -20 -53 -14 -16 -27 -39 -29 -51 -3 -12 -14 -32 -25 -44 -11 -12 -20 -30 -20 -40 0 -10 -14 -31 -30 -47 -17 -16 -28 -33 -24 -39 3 -6 -4 -21 -16 -34 -12 -12 -23 -29 -24 -36 -6 -29 -35 -86 -50 -99 -9 -7 -16 -21 -16 -31 0 -11 -4 -19 -10 -19 -5 0 -10 -9 -10 -19 0 -10 -7 -21 -15 -24 -8 -4 -21 -21 -28 -39 -8 -18 -29 -48 -46 -66 -18 -18 -29 -37 -26 -42 4 -6 -1 -13 -9 -16 -9 -3 -16 -17 -16 -30 0 -13 -6 -24 -12 -24 -14 0 -53 -59 -49 -74 3 -13 -20 -36 -30 -30 -5 3 -9 -1 -9 -9 0 -8 -7 -17 -15 -21 -8 -3 -15 -14 -15 -25 0 -10 -13 -33 -29 -50 -16 -17 -27 -31 -25 -31 3 0 -11 -16 -31 -37 -19 -20 -35 -40 -35 -45 0 -5 -5 -6 -12 -2 -6 4 -8 3 -5 -3 4 -6 0 -16 -8 -23 -8 -7 -15 -21 -15 -31 0 -11 -5 -16 -12 -14 -13 5 -56 -49 -50 -61 2 -3 -12 -20 -30 -37 -19 -18 -39 -44 -46 -59 -8 -19 -16 -26 -27 -22 -10 4 -15 0 -15 -15 0 -12 -4 -21 -8 -21 -14 0 -52 -36 -52 -49 0 -6 -4 -11 -10 -11 -5 0 -12 -11 -16 -24 -4 -16 -11 -23 -20 -19 -8 3 -17 -3 -21 -13 -4 -11 -24 -36 -45 -56 -21 -20 -38 -46 -38 -57 0 -14 -9 -23 -27 -27 -15 -4 -34 -13 -41 -21 -8 -7 -19 -10 -25 -7 -9 5 -9 4 -1 -5 13 -14 7 -54 -7 -45 -5 3 -9 -2 -9 -11 0 -12 -5 -15 -16 -11 -10 4 -18 0 -21 -13 -3 -12 -11 -17 -19 -14 -9 3 -14 -2 -14 -16 0 -14 -8 -23 -25 -27 -13 -3 -27 -16 -31 -27 -9 -28 -76 -95 -90 -90 -7 2 -14 -8 -18 -22 -3 -13 -10 -24 -14 -24 -21 4 -32 -3 -32 -20 0 -13 -11 -23 -35 -31 -19 -6 -35 -18 -35 -26 0 -8 -7 -14 -15 -14 -9 0 -20 -10 -25 -23 -5 -12 -9 -17 -9 -12 -1 6 -10 -5 -21 -23 -11 -18 -25 -30 -30 -27 -5 3 -16 -7 -24 -22 -8 -15 -15 -21 -16 -13 0 8 -9 0 -20 -17 -11 -18 -26 -33 -35 -33 -8 0 -19 -9 -25 -20 -6 -10 -16 -17 -24 -14 -7 3 -16 -2 -19 -10 -4 -9 -13 -16 -22 -16 -9 0 -15 -9 -15 -21 0 -13 -5 -19 -13 -16 -7 3 -21 -1 -31 -9 -11 -7 -23 -11 -28 -8 -5 3 -7 2 -6 -3 5 -16 -24 -54 -37 -49 -8 3 -17 -3 -20 -14 -3 -11 -9 -19 -13 -19 -21 3 -32 -3 -32 -16 0 -9 -16 -25 -35 -36 -19 -12 -35 -25 -35 -30 0 -4 -6 -6 -12 -4 -17 6 -29 -3 -51 -38 -15 -23 -21 -26 -33 -17 -11 10 -16 7 -23 -13 -11 -27 -31 -45 -31 -27 0 7 -13 -2 -29 -19 -16 -17 -33 -31 -38 -30 -15 4 -63 -24 -63 -36 0 -19 -36 -46 -53 -40 -10 4 -17 -1 -22 -14 -3 -12 -11 -21 -16 -21 -6 0 -7 6 -4 12 4 7 -3 2 -14 -12 -11 -14 -21 -21 -21 -17 0 15 -40 -14 -40 -29 0 -11 -5 -14 -17 -10 -9 4 -20 1 -24 -6 -5 -7 -13 -14 -19 -14 -5 -1 -14 -2 -19 -3 -5 0 -13 -11 -16 -22 -5 -13 -10 -17 -14 -11 -7 11 -36 -8 -90 -60 -13 -13 -21 -17 -17 -11 5 9 2 11 -8 7 -9 -3 -16 -10 -16 -16 0 -5 -4 -7 -10 -3 -5 3 -21 -8 -36 -25 -15 -16 -33 -30 -41 -30 -7 0 -13 -6 -13 -14 0 -10 -10 -13 -35 -11 -19 2 -33 0 -30 -5 7 -11 -30 -32 -38 -23 -4 3 -11 -7 -17 -22 -8 -22 -15 -26 -34 -21 -19 5 -30 -1 -49 -24 -17 -20 -32 -28 -46 -25 -12 2 -21 0 -21 -6 0 -5 -3 -8 -7 -8 -18 3 -36 -1 -30 -7 3 -4 -1 -14 -10 -23 -13 -12 -17 -13 -21 -3 -3 10 -8 8 -18 -5 -13 -17 -14 -17 -8 2 3 12 -1 9 -11 -7 -8 -16 -18 -28 -21 -28 -3 0 -3 4 1 9 3 5 -8 3 -24 -5 -16 -8 -32 -22 -35 -30 -4 -9 -13 -14 -21 -10 -8 3 -15 1 -15 -5 0 -6 -7 -8 -15 -5 -9 3 -18 -1 -21 -8 -3 -8 -13 -13 -22 -11 -9 1 -27 -8 -39 -21 -12 -13 -34 -24 -48 -24 -14 0 -34 -11 -47 -25 -12 -14 -27 -24 -33 -21 -6 2 -27 -3 -46 -12 -18 -8 -37 -14 -41 -14 -5 1 -8 -2 -8 -8 0 -5 -16 -12 -35 -16 -20 -3 -40 -16 -49 -29 -10 -15 -23 -23 -36 -20 -11 2 -19 -1 -17 -7 1 -6 -9 -12 -21 -13 -13 -1 -27 -8 -32 -15 -6 -10 -9 -9 -13 1 -4 11 -8 10 -18 -3 -8 -10 -26 -19 -41 -20 -16 -1 -28 -6 -28 -10 0 -4 -9 -8 -20 -8 -11 0 -20 -5 -20 -11 0 -5 -4 -8 -9 -4 -6 3 -20 -5 -32 -17 -12 -13 -19 -17 -15 -10 12 21 -8 13 -22 -9 -7 -11 -19 -18 -27 -16 -7 3 -21 -3 -30 -13 -12 -13 -28 -19 -49 -16 -17 1 -48 -6 -68 -16 -21 -10 -45 -19 -55 -21 -29 -6 -96 -37 -115 -54 -17 -15 -18 -15 -18 3 0 16 -2 17 -10 4 -5 -8 -10 -10 -10 -5 0 6 -7 1 -15 -9 -8 -11 -15 -16 -15 -12 0 5 -6 4 -12 -2 -14 -10 -75 -26 -82 -20 -2 2 -12 -4 -22 -12 -40 -32 -65 -42 -78 -30 -10 7 -17 6 -26 -6 -8 -8 -22 -13 -33 -10 -11 2 -27 -4 -39 -16 -11 -11 -26 -17 -33 -14 -20 7 -87 -13 -111 -35 -22 -20 -44 -25 -44 -9 0 6 -9 6 -25 0 -14 -5 -38 -12 -53 -15 -15 -3 -31 -7 -37 -8 -5 -2 -17 -7 -25 -12 -8 -5 -26 -10 -40 -11 -14 0 -55 -12 -91 -26 -36 -14 -76 -24 -90 -23 -13 1 -34 -6 -46 -17 -17 -16 -25 -18 -42 -8 -17 8 -26 8 -42 -4 -12 -8 -27 -12 -34 -10 -6 3 -17 -1 -23 -9 -6 -7 -26 -12 -44 -11 -18 1 -40 -4 -50 -13 -10 -8 -25 -12 -36 -9 -11 4 -39 2 -63 -4 -24 -6 -59 -13 -78 -16 -19 -2 -40 -9 -46 -14 -6 -5 -22 -8 -35 -5 -14 3 -28 -2 -36 -12 -9 -13 -15 -15 -26 -6 -9 8 -19 9 -28 3 -8 -5 -22 -7 -31 -5 -9 3 -22 -1 -29 -10 -15 -18 -60 -20 -60 -2 0 8 -3 9 -8 1 -4 -6 -17 -16 -29 -22 -16 -9 -22 -9 -26 1 -3 9 -10 9 -28 -2 -15 -9 -53 -15 -97 -16 -41 -1 -77 -5 -80 -11 -10 -13 -35 -17 -27 -4 3 5 -1 10 -10 10 -9 0 -13 -5 -9 -11 3 -6 -8 -3 -25 5 -23 12 -31 13 -29 4 3 -14 -13 -16 -114 -20 -32 -1 -58 -5 -58 -10 0 -4 -3 -7 -7 -6 -5 0 -16 -2 -27 -7 -11 -5 -21 -3 -26 5 -5 8 -15 9 -31 4 -13 -4 -28 -9 -34 -10 -51 -11 -65 -11 -65 -2 0 7 -5 7 -12 1 -7 -5 -25 -9 -40 -8 -16 0 -28 -2 -28 -5 0 -4 -42 -6 -92 -5 -51 0 -104 -3 -117 -7 -14 -5 -28 -4 -35 2 -9 6 -16 6 -25 -3 -9 -9 -14 -9 -20 1 -6 10 -10 10 -20 -2 -10 -12 -18 -13 -33 -5 -11 6 -27 7 -36 4 -9 -4 -48 -9 -85 -11 -51 -2 -66 0 -60 9 4 7 0 7 -10 -2 -13 -10 -17 -10 -17 -1 0 9 -7 8 -25 -4 -16 -10 -25 -12 -25 -5 0 6 -7 9 -15 5 -8 -3 -15 0 -15 6 0 7 -4 7 -12 0 -7 -5 -26 -8 -43 -5 -44 6 -48 6 -67 -2 -11 -4 -18 -3 -18 4 0 9 -5 9 -21 0 -16 -8 -23 -8 -29 1 -8 13 -16 13 -44 -2 -14 -7 -17 -7 -11 2 8 13 -46 11 -56 -3 -3 -4 -18 -3 -33 3 -15 5 -32 8 -37 4 -5 -3 -9 0 -9 5 0 6 -7 11 -16 11 -9 0 -13 -5 -9 -12 4 -7 0 -5 -8 5 -12 15 -16 15 -20 3 -6 -15 -23 -16 -44 -3 -8 5 -13 3 -13 -4 0 -10 -3 -10 -12 -1 -8 8 -19 8 -45 -3 -18 -8 -35 -15 -36 -17 -2 -2 -11 4 -20 13 -16 17 -63 19 -86 5 -6 -4 -27 1 -45 12 -24 14 -38 17 -51 9 -14 -7 -16 -7 -10 3 6 10 1 11 -19 6 -15 -4 -26 -2 -26 4 0 6 -9 6 -25 0 -14 -5 -25 -7 -25 -4 0 4 -6 1 -14 -5 -11 -9 -19 -9 -35 1 -12 7 -21 15 -21 19 0 3 -20 5 -45 5 -25 -1 -45 3 -45 9 0 5 -5 4 -12 -3 -14 -14 -32 -16 -24 -3 3 5 -1 12 -10 15 -22 9 -26 8 -18 -5 5 -9 -1 -10 -22 -5 -16 4 -38 9 -50 10 -11 1 -25 5 -31 9 -7 4 -14 3 -18 -3 -8 -13 -52 -13 -60 0 -4 6 -11 8 -16 5 -5 -4 -9 -1 -9 6 0 9 -3 9 -15 -1 -14 -11 -56 -5 -54 8 3 20 -3 21 -26 6 -24 -16 -26 -16 -44 5 -11 13 -22 18 -25 12 -4 -6 -13 -8 -21 -5 -8 4 -12 11 -8 17 3 6 -4 3 -16 -5 -18 -13 -29 -14 -52 -6 -16 5 -34 8 -41 5 -7 -2 -23 4 -35 15 -16 15 -25 17 -41 9 -14 -8 -28 -6 -53 7 -19 10 -47 16 -62 15 -15 -1 -27 3 -27 10 0 7 -4 6 -10 -3 -8 -12 -10 -12 -16 3 -3 9 -10 14 -15 11 -5 -3 -9 0 -9 7 0 8 -4 8 -13 1 -7 -6 -18 -7 -27 -2 -7 4 -24 4 -37 -1 -18 -7 -25 -5 -29 6 -4 10 -11 12 -22 7 -31 -15 -82 -13 -88 3 -3 8 -10 12 -15 9 -5 -3 -9 0 -9 6 0 6 -4 9 -8 6 -5 -3 -18 3 -29 13 -14 13 -30 17 -56 15 -22 -3 -46 1 -60 10 -20 13 -26 14 -50 1 -20 -10 -27 -11 -27 -2 0 7 -12 13 -27 14 -15 0 -29 6 -31 12 -3 9 -8 9 -18 0 -11 -9 -18 -8 -32 3 -27 24 -75 43 -104 43 -15 -1 -25 2 -23 5 2 3 -8 10 -21 17 -13 6 -26 7 -29 2 -7 -10 -38 0 -48 17 -4 7 -14 11 -22 8 -8 -4 -15 -1 -15 6 0 10 -3 10 -15 0 -9 -7 -22 -9 -32 -5 -10 5 -23 7 -30 6 -6 -1 -14 3 -18 8 -3 6 -19 8 -35 4 -24 -4 -30 -2 -30 11 0 10 -4 15 -9 11 -5 -3 -12 -1 -16 5 -3 5 -17 10 -31 10 -16 0 -23 4 -18 11 4 7 -6 10 -30 8 -21 -2 -43 3 -54 11 -24 21 -78 39 -99 34 -10 -3 -31 6 -46 20 -17 14 -38 23 -52 21 -14 -1 -25 2 -25 8 0 6 -3 8 -6 4 -4 -3 -13 1 -21 9 -9 8 -22 13 -29 10 -7 -3 -20 4 -28 15 -12 18 -21 20 -56 14 -30 -5 -41 -4 -36 4 4 7 -1 11 -13 11 -12 0 -21 5 -21 11 0 5 -4 8 -9 5 -5 -3 -11 3 -14 13 -3 13 -21 22 -58 31 -30 7 -55 12 -56 12 -2 -1 -13 8 -24 19 -16 16 -29 20 -55 16 -20 -3 -34 -2 -34 4 0 6 -4 8 -9 4 -6 -3 -15 4 -21 15 -6 11 -14 19 -18 19 -25 -4 -42 2 -36 13 5 8 2 9 -9 5 -10 -4 -17 -1 -17 5 0 6 -3 8 -7 5 -3 -4 -21 5 -40 19 -18 14 -49 28 -67 31 -20 3 -36 12 -39 22 -2 9 -16 17 -32 19 -15 1 -33 6 -40 12 -6 5 -15 7 -18 3 -4 -3 -7 -1 -7 5 0 7 -6 12 -13 12 -8 0 -24 9 -37 20 -13 11 -29 20 -37 20 -7 0 -16 7 -19 15 -4 8 -15 15 -25 15 -11 0 -22 7 -25 15 -4 8 -10 12 -15 9 -5 -3 -9 -1 -9 3 0 5 -10 9 -22 10 -12 1 -29 11 -38 22 -10 14 -23 19 -38 16 -31 -6 -72 11 -72 30 0 8 -11 20 -24 26 -16 8 -22 17 -18 27 4 12 1 14 -13 8 -13 -5 -25 1 -41 20 -13 14 -27 23 -33 20 -5 -4 -16 2 -23 13 -7 10 -28 21 -47 24 -31 5 -60 30 -61 52 0 11 -46 35 -67 35 -7 0 -13 7 -13 16 0 10 -6 14 -15 10 -8 -3 -14 -2 -14 2 4 21 -3 34 -14 29 -7 -3 -19 3 -25 13 -6 10 -25 21 -42 25 -16 4 -28 11 -24 16 6 10 -39 30 -59 26 -7 -1 -11 5 -9 14 3 19 -17 38 -46 44 -25 5 -62 36 -62 52 0 7 -3 12 -7 12 -21 -3 -33 2 -33 16 0 8 -6 15 -13 15 -8 0 -27 11 -43 25 -15 13 -30 22 -32 20 -3 -2 -17 10 -31 28 -15 18 -33 33 -41 35 -8 1 -27 16 -41 32 -14 17 -29 30 -33 30 -4 0 -19 13 -32 30 -14 16 -28 29 -32 28 -4 -2 -38 28 -76 65 -37 37 -70 67 -72 67 -2 0 -25 22 -52 49 -27 27 -58 52 -70 56 -12 3 -20 10 -17 15 3 5 -3 18 -15 30 -11 11 -20 25 -20 30 0 6 -4 10 -10 10 -13 0 -50 37 -50 49 0 6 -8 16 -18 23 -11 7 -24 23 -31 36 -6 12 -18 22 -26 22 -14 0 -19 12 -16 33 1 4 -6 10 -14 13 -8 3 -13 10 -10 14 2 4 -9 18 -25 30 -17 13 -30 31 -30 41 0 11 -4 19 -9 19 -5 0 -20 20 -32 45 -12 25 -26 45 -31 45 -4 0 -8 6 -8 13 0 7 -9 23 -20 35 -12 12 -18 22 -15 22 3 0 -3 10 -14 22 -12 12 -24 36 -27 54 -3 18 -12 38 -20 45 -8 6 -14 17 -14 24 0 7 -7 18 -15 25 -8 7 -12 17 -9 22 4 5 1 22 -6 36 -30 64 -33 72 -27 79 4 3 3 11 -2 17 -21 26 -60 255 -62 364 -2 56 -8 67 -38 57 -28 -8 -32 -72 -30 -408 0 -9 3 -15 7 -13 4 2 6 -12 5 -32 -1 -21 5 -59 12 -86 8 -27 12 -52 10 -57 -3 -4 1 -24 9 -43 8 -19 12 -37 9 -40 -3 -2 -1 -11 3 -18 5 -7 9 -17 9 -23 1 -23 18 -82 31 -105 7 -14 22 -52 33 -85 27 -82 43 -118 60 -131 8 -6 11 -16 7 -22 -4 -7 -2 -12 3 -12 6 0 11 -11 11 -24 0 -14 6 -31 13 -38 17 -17 47 -77 47 -95 0 -7 7 -13 15 -13 8 0 14 -3 13 -7 -2 -13 20 -60 31 -67 6 -4 19 -26 29 -49 11 -23 29 -53 41 -66 11 -13 21 -30 21 -38 0 -7 4 -13 8 -13 5 0 18 -18 31 -40 12 -22 26 -40 30 -40 4 0 14 -12 22 -27 16 -31 32 -51 72 -93 15 -15 27 -33 27 -39 0 -6 7 -11 15 -11 8 0 15 -7 15 -16 0 -18 23 -44 39 -44 6 0 11 -6 11 -12 0 -17 44 -68 59 -68 6 0 11 -5 11 -12 0 -13 77 -88 91 -88 5 0 9 -4 9 -10 0 -5 7 -10 15 -10 8 0 15 -7 15 -15 0 -8 9 -23 20 -32 11 -10 20 -23 20 -30 0 -7 6 -13 13 -13 7 0 18 -9 25 -20 7 -12 17 -18 22 -15 6 3 10 1 10 -4 0 -6 9 -11 19 -11 13 0 21 -9 26 -30 4 -16 13 -30 20 -30 7 0 15 -7 19 -15 3 -8 12 -12 20 -9 11 4 19 -2 25 -19 6 -14 19 -28 30 -32 12 -3 21 -11 21 -16 0 -5 6 -9 14 -9 8 0 18 -9 21 -21 4 -11 12 -18 19 -16 7 3 18 -4 25 -15 9 -14 19 -18 35 -14 18 4 24 0 35 -29 10 -29 15 -33 30 -25 21 11 41 -5 41 -32 0 -11 10 -20 28 -24 15 -4 42 -22 59 -41 18 -19 37 -32 42 -29 5 3 12 -1 15 -9 3 -9 17 -15 33 -14 16 1 35 0 43 -2 23 -6 77 -62 85 -87 4 -13 12 -21 20 -19 7 3 28 -8 47 -23 20 -16 38 -26 42 -23 3 4 12 -2 20 -12 8 -11 20 -16 30 -12 22 9 46 -2 46 -20 0 -9 6 -13 15 -9 8 3 15 1 15 -5 0 -6 6 -16 13 -23 16 -16 50 -29 42 -16 -3 6 -1 10 4 10 6 0 11 -4 11 -10 0 -5 6 -7 14 -4 8 3 18 -7 26 -26 8 -19 18 -29 26 -26 7 3 16 1 20 -5 3 -6 12 -8 20 -5 19 7 44 -3 44 -19 0 -7 9 -15 20 -18 11 -3 20 -1 20 5 0 5 7 3 15 -6 8 -8 15 -19 15 -25 0 -7 10 -9 25 -5 14 3 25 2 25 -3 0 -4 14 -8 32 -8 28 0 33 -4 42 -33 7 -25 14 -32 27 -29 10 3 20 0 22 -6 2 -6 17 -10 35 -10 19 0 32 -5 32 -13 0 -14 35 -28 49 -20 5 4 12 -3 16 -13 5 -17 10 -19 33 -10 18 7 28 7 30 0 2 -6 9 -8 15 -4 7 4 6 -1 -2 -10 -17 -22 -3 -22 21 0 17 15 18 15 18 0 0 -10 4 -17 9 -17 5 0 12 -9 16 -20 5 -15 12 -18 36 -13 24 4 29 2 29 -13 0 -14 3 -15 12 -6 19 19 45 14 64 -10 10 -14 14 -16 11 -6 -5 14 -1 15 26 7 18 -5 32 -9 33 -9 1 0 4 -9 7 -20 3 -11 12 -20 21 -20 10 0 13 -5 9 -17 -6 -15 -5 -15 16 -1 18 13 28 14 47 6 13 -6 24 -18 24 -27 0 -14 2 -14 10 -1 9 14 15 7 11 -14 -1 -5 4 -4 12 2 10 9 17 6 31 -10 13 -15 20 -17 26 -8 5 9 9 9 14 1 4 -6 16 -11 26 -11 10 0 21 -6 23 -12 3 -8 6 -6 6 5 1 15 4 15 21 5 13 -8 18 -20 15 -33 -3 -11 -2 -14 1 -7 7 15 34 16 34 1 0 -6 9 -8 20 -4 11 4 20 2 20 -4 0 -6 5 -11 11 -11 5 0 8 4 5 8 -3 5 1 9 8 9 7 0 13 -7 12 -16 -1 -11 6 -15 22 -13 13 1 37 -7 53 -19 16 -11 36 -18 44 -15 8 3 15 1 15 -4 0 -5 14 -7 30 -3 19 3 30 1 30 -6 0 -6 12 -11 28 -11 62 0 72 -2 78 -11 3 -6 12 -5 22 3 12 10 14 10 8 1 -4 -7 -3 -13 2 -13 5 0 14 -11 22 -24 10 -19 15 -22 25 -13 7 7 11 15 9 18 -2 3 3 6 11 6 8 0 13 -5 12 -11 -1 -6 7 -11 18 -12 35 -2 38 -4 25 -19 -11 -13 -8 -13 29 -1 26 10 43 11 47 5 3 -6 12 -8 20 -5 8 3 19 -3 26 -13 9 -15 17 -17 34 -10 19 7 22 5 17 -9 -5 -14 -3 -15 8 -4 19 18 50 15 56 -6 3 -14 12 -17 46 -13 36 3 40 2 29 -11 -11 -13 -8 -15 19 -12 24 3 30 1 25 -11 -9 -24 12 -28 42 -7 22 16 31 18 43 9 9 -7 14 -19 11 -27 -2 -8 4 -4 14 9 l18 25 13 -30 c10 -20 13 -22 9 -6 -2 12 0 22 5 22 5 0 9 -7 9 -15 0 -18 12 -19 28 -3 9 9 17 7 35 -11 14 -12 30 -21 38 -19 8 2 15 -7 17 -20 3 -20 5 -21 19 -6 9 8 22 13 29 10 8 -3 14 -2 14 3 0 4 7 8 15 8 11 0 12 -4 5 -11 -14 -14 -13 -29 3 -19 18 12 78 10 66 -1 -5 -6 -9 -15 -9 -20 0 -7 3 -8 8 -1 4 6 17 18 29 28 17 15 25 16 42 7 12 -6 21 -18 21 -28 0 -10 3 -13 8 -7 9 13 35 18 27 5 -3 -5 -2 -10 4 -10 5 0 13 5 17 12 5 8 11 6 19 -6 11 -14 14 -15 25 -1 7 8 18 15 26 15 18 0 61 -42 58 -58 -1 -7 0 -8 3 -2 2 5 16 10 29 10 17 0 23 -4 19 -12 -4 -7 0 -5 9 6 14 17 16 17 31 2 9 -9 22 -16 28 -16 8 0 7 4 -2 9 -10 7 -7 9 12 8 21 -2 23 -5 14 -17 -6 -8 0 -6 13 6 14 11 30 20 35 19 25 -4 45 -19 45 -34 0 -10 3 -12 8 -5 4 6 17 7 32 3 16 -4 19 -7 8 -8 -10 -1 -18 -5 -18 -10 0 -11 32 -9 46 4 8 6 8 12 2 16 -5 3 -1 9 10 11 16 4 19 2 15 -10 -5 -11 -3 -13 7 -7 10 6 12 4 7 -9 -6 -14 -3 -16 13 -11 11 3 25 3 32 -2 22 -13 50 -14 42 -1 -4 7 -3 8 4 4 7 -4 12 -13 12 -20 0 -7 7 -13 15 -13 18 0 19 9 3 26 -11 11 -9 11 9 2 15 -8 20 -17 16 -28 -5 -12 -3 -14 8 -7 8 5 17 9 21 9 3 0 10 4 15 9 5 5 2 6 -7 1 -12 -7 -13 -6 -2 6 9 10 15 10 20 3 9 -14 80 -25 87 -13 11 16 27 10 21 -8 -6 -14 -3 -14 15 3 19 16 21 16 16 2 -3 -9 0 -19 8 -22 10 -3 12 0 9 12 -5 15 -4 15 9 -1 13 -16 15 -16 21 -2 4 11 2 14 -7 9 -7 -4 -8 -3 -4 2 10 11 68 14 62 3 -3 -4 -1 -10 5 -14 5 -3 10 -2 10 3 0 15 28 23 36 10 5 -7 2 -8 -7 -4 -8 4 -5 0 5 -8 23 -19 36 -20 36 -5 0 5 -5 7 -12 3 -7 -4 -8 -3 -4 5 6 9 11 9 21 1 8 -7 21 -7 38 -1 21 8 28 7 36 -7 6 -9 11 -12 11 -6 0 6 7 11 15 11 8 0 12 -4 9 -9 -3 -4 1 -8 10 -8 8 0 16 6 19 13 3 9 8 8 22 -3 10 -8 26 -14 36 -12 14 2 17 -1 13 -12 -11 -29 25 -30 51 -2 14 15 30 24 35 21 6 -4 8 -10 6 -14 -3 -4 -1 -13 3 -19 6 -10 11 -9 22 4 12 16 12 17 -4 11 -11 -4 -16 -3 -12 3 3 6 15 10 25 10 14 0 18 -5 13 -17 -4 -10 -2 -14 4 -10 6 4 13 1 16 -5 2 -7 8 -1 12 15 8 31 6 30 40 17 24 -9 26 -12 14 -28 -7 -9 -9 -14 -5 -10 5 4 15 3 22 -3 10 -8 17 -7 28 4 8 8 12 18 8 21 -3 4 2 4 13 0 34 -12 38 -16 24 -25 -11 -7 -10 -9 3 -9 10 0 22 9 28 20 12 23 42 16 32 -8 -5 -14 -4 -15 10 -2 9 8 13 19 10 24 -3 5 0 6 7 2 7 -5 18 -1 25 9 11 15 15 16 34 4 15 -9 20 -20 16 -32 -5 -16 -3 -17 15 -5 12 7 21 18 21 25 0 7 7 13 16 13 8 0 12 -5 9 -10 -4 -7 2 -9 19 -4 23 5 25 4 19 -12 -6 -17 -5 -17 10 -5 9 7 15 17 12 21 -4 6 14 7 48 1 5 0 6 -4 4 -8 -3 -5 2 -15 11 -23 14 -13 15 -12 9 3 -4 11 -3 16 3 12 6 -3 10 -1 10 6 0 7 7 4 15 -7 8 -10 15 -14 15 -8 0 6 11 16 25 22 22 10 27 9 41 -13 20 -31 42 -32 53 -2 l9 22 9 -24 c7 -17 12 -21 17 -12 4 6 3 18 -3 25 -9 11 -6 12 13 9 18 -4 23 -10 18 -22 -5 -14 -4 -14 11 -2 14 11 17 11 17 0 0 -9 3 -10 8 -4 9 13 56 39 49 28 -3 -4 1 -13 8 -20 10 -10 14 -9 19 2 3 8 15 15 26 15 12 0 19 4 16 8 -3 5 21 8 54 8 48 0 57 -2 52 -15 -3 -10 4 -7 21 8 l26 23 -6 -23 c-4 -19 -3 -21 6 -9 7 10 11 11 11 3 0 -7 5 -13 11 -13 5 0 8 4 4 9 -3 5 -1 12 5 16 5 3 10 0 10 -7 0 -8 9 -14 20 -15 19 -2 25 8 20 32 -1 5 2 7 5 3 4 -4 16 -3 27 3 13 7 23 7 32 0 9 -7 16 -7 26 2 7 6 10 8 8 2 -3 -5 0 -15 7 -22 11 -10 14 -10 18 0 3 9 8 8 22 -3 11 -9 16 -10 11 -2 -4 7 -2 12 4 12 6 0 8 5 5 10 -3 6 -1 10 4 10 6 0 11 -7 11 -15 0 -21 9 -19 34 7 19 21 66 34 64 19 -3 -28 5 -33 17 -11 8 14 14 19 15 11 0 -11 3 -11 18 0 15 13 16 12 3 -4 -8 -9 -11 -21 -7 -24 4 -4 11 -2 15 6 5 7 11 11 14 9 4 -1 16 5 27 14 26 23 31 23 24 1 -4 -12 1 -10 16 7 l21 25 -7 -25 c-6 -21 -5 -23 8 -13 8 7 17 10 20 7 3 -3 5 2 4 12 0 9 6 19 14 21 12 4 12 3 1 -5 -11 -8 -11 -10 0 -14 8 -3 19 2 26 11 10 13 11 12 6 -9 -6 -24 -6 -24 11 -7 20 19 32 22 41 7 7 -11 45 24 46 43 1 6 5 1 9 -13 5 -17 8 -19 9 -7 1 9 6 17 12 17 5 0 7 5 4 10 -8 13 1 13 25 0 11 -6 17 -17 14 -25 -8 -19 3 -19 23 0 14 14 16 14 28 -1 12 -17 13 -17 19 2 3 10 15 25 27 32 12 8 18 9 15 3 -4 -5 -2 -12 4 -16 5 -3 10 1 10 9 0 8 5 18 12 22 7 4 8 3 4 -4 -4 -7 -1 -12 9 -12 9 0 13 4 10 10 -4 6 1 7 11 3 13 -5 15 -3 9 7 -6 9 -4 11 4 5 9 -5 10 -10 2 -18 -16 -16 -14 -32 2 -18 8 6 17 8 20 4 4 -3 7 -1 7 5 0 7 9 12 21 12 11 0 17 5 14 10 -3 6 -2 10 4 10 5 0 12 -6 15 -12 4 -9 10 -6 21 8 10 14 23 20 35 17 11 -3 18 -8 16 -12 -3 -4 5 -8 17 -8 17 -2 19 0 7 7 -13 8 -12 10 3 10 9 0 17 4 17 8 0 4 9 8 20 8 11 0 20 -6 20 -12 0 -10 27 -12 38 -4 1 2 6 3 12 4 5 0 16 10 25 21 12 16 14 17 9 3 -3 -10 -1 -18 5 -18 6 0 11 5 11 11 0 6 9 8 20 4 13 -4 20 -2 20 7 0 10 3 9 10 -2 5 -8 10 -10 10 -4 0 6 12 11 27 10 14 0 28 5 31 13 3 9 0 11 -9 6 -11 -6 -11 -5 -2 5 13 14 48 6 38 -10 -3 -5 -1 -10 4 -10 10 0 15 14 12 32 0 4 6 5 14 2 8 -4 17 1 21 10 3 9 15 14 27 12 12 -2 33 4 47 13 14 9 21 11 17 4 -5 -7 -4 -20 0 -28 7 -12 13 -10 37 10 17 15 23 25 15 25 -11 0 -11 2 1 10 10 6 22 4 37 -5 19 -13 24 -13 37 0 8 8 17 20 19 27 4 9 12 5 26 -12 13 -16 21 -20 21 -11 0 8 3 12 6 8 4 -3 15 4 25 16 16 19 18 20 19 5 0 -24 6 -23 38 7 22 21 28 22 35 10 4 -9 13 -13 18 -10 5 4 7 10 5 14 -3 4 4 12 14 19 16 10 18 9 15 -8 -2 -11 0 -20 6 -20 5 0 9 4 9 10 0 5 7 7 15 3 9 -3 15 -1 13 5 -3 11 40 52 56 52 6 0 5 -5 -2 -12 -16 -16 -15 -25 3 -25 8 0 12 4 9 8 -8 14 32 29 44 17 11 -11 16 -2 14 23 -1 3 5 6 13 6 7 0 11 -7 8 -16 -4 -13 -3 -13 6 1 6 9 19 15 28 14 10 -2 25 7 35 18 10 12 17 15 18 9 0 -18 40 -16 40 1 0 8 7 16 15 20 8 3 15 13 15 21 0 9 4 14 10 10 5 -3 6 -13 3 -22 -6 -15 -5 -16 9 -3 9 8 14 17 13 20 -2 3 5 6 16 6 10 0 19 -5 19 -11 0 -5 11 1 23 15 12 14 33 25 45 26 16 0 19 -3 12 -10 -19 -19 -10 -24 25 -13 19 5 41 20 50 33 10 16 23 21 44 20 24 -2 28 1 25 17 -2 12 1 17 10 14 8 -3 19 -1 25 4 8 6 8 5 1 -3 -5 -7 -10 -19 -9 -27 0 -11 2 -12 6 -3 2 6 10 9 16 5 7 -3 9 -3 5 2 -4 4 0 14 8 22 8 8 12 18 10 22 -3 4 1 8 9 8 10 0 11 -5 4 -19 -6 -12 -6 -18 1 -18 5 0 10 6 10 13 0 9 2 9 8 0 6 -9 13 -3 26 18 14 23 21 27 31 19 10 -8 21 -3 46 20 34 31 34 31 40 8 l5 -23 8 22 c7 22 46 29 46 8 0 -5 4 -3 9 5 6 8 7 18 5 22 -3 4 5 8 18 8 18 0 20 2 8 10 -8 5 -10 10 -4 10 5 0 15 -5 21 -11 8 -8 16 -6 31 9 13 13 23 17 30 10 7 -7 14 -3 21 11 7 12 17 21 23 21 6 0 17 8 25 18 8 9 12 11 8 5 -9 -18 5 -16 27 4 18 16 18 16 12 -1 -5 -14 -3 -17 7 -14 8 3 13 11 11 17 -1 6 3 18 10 25 11 11 15 11 25 -3 11 -14 12 -14 9 5 -3 15 1 20 19 20 16 0 21 -5 18 -15 -3 -9 2 -5 12 7 13 18 25 23 46 20 16 -3 25 0 22 5 -4 6 3 8 16 4 18 -4 20 -3 11 8 -9 11 -7 12 9 8 13 -3 21 -1 21 6 0 7 4 10 9 7 5 -3 14 1 21 9 7 8 9 15 5 15 -4 0 -2 7 5 14 8 11 18 12 36 6 18 -7 24 -6 24 5 0 9 6 12 17 8 12 -5 15 -2 10 9 -4 12 -1 14 15 10 16 -4 20 -2 15 10 -8 21 3 30 20 17 10 -9 13 -8 13 0 0 7 5 9 12 5 8 -5 9 -2 4 11 -5 15 -4 16 9 5 9 -7 13 -20 10 -29 -3 -11 0 -10 10 3 8 11 15 26 15 33 0 7 5 13 11 13 7 0 18 8 25 17 13 16 14 15 9 -11 l-4 -29 24 23 c14 13 25 29 25 36 0 20 19 27 35 14 13 -10 15 -8 16 16 0 16 3 23 6 17 2 -7 20 -13 39 -13 30 0 35 4 40 28 3 16 16 32 31 39 20 10 24 9 19 -2 -2 -7 1 -16 9 -19 10 -3 12 0 8 11 -4 11 -2 14 5 9 7 -4 12 -2 12 3 0 6 6 11 13 11 7 0 18 9 25 20 7 12 17 18 22 15 6 -3 10 3 10 14 0 23 15 28 23 9 4 -10 8 -9 16 2 10 14 16 7 12 -13 -1 -5 3 -6 9 -2 6 3 8 10 5 14 -6 10 40 61 54 61 6 0 8 -7 5 -15 -4 -9 0 -15 10 -15 9 0 17 7 17 15 1 8 3 20 4 25 1 6 3 16 4 24 2 20 41 8 41 -13 1 -14 2 -14 14 1 7 10 16 15 19 11 6 -5 11 24 9 47 0 3 8 6 19 6 10 0 19 -7 19 -16 1 -9 6 -5 14 10 8 14 12 28 10 32 -6 10 10 10 20 1 12 -12 36 -12 36 1 0 14 29 43 44 46 5 1 13 -4 17 -12 7 -10 9 -10 9 0 0 8 5 10 13 6 7 -5 6 0 -3 11 -9 11 -10 16 -2 11 8 -5 12 0 12 13 0 24 25 28 34 5 8 -21 29 -6 23 16 -3 11 2 21 10 24 11 5 13 2 8 -11 -3 -10 8 -3 26 15 21 21 39 32 51 29 15 -4 16 -2 6 16 -6 12 -7 19 -3 15 5 -4 14 -3 22 3 7 6 13 8 13 4 0 -4 18 9 40 29 22 20 45 36 50 36 6 0 10 6 10 14 0 21 20 30 33 17 17 -17 37 -13 37 7 0 26 11 34 27 21 7 -6 13 -10 14 -8 0 2 2 12 4 23 4 21 39 56 55 56 6 0 8 -5 5 -10 -3 -6 0 -10 8 -10 13 0 15 5 19 49 2 20 38 18 38 -3 0 -21 20 19 20 41 0 12 5 25 12 29 6 4 9 3 6 -2 -3 -5 0 -14 7 -21 10 -10 14 -9 19 3 4 10 13 14 22 10 13 -5 15 -2 11 14 -6 24 12 67 31 75 17 6 34 -3 27 -16 -4 -5 -3 -15 1 -21 6 -9 10 -5 14 12 3 14 12 25 20 25 8 0 14 8 12 17 -1 9 2 19 8 23 5 3 10 2 10 -3 0 -19 31 -22 37 -4 12 32 46 71 56 65 6 -4 8 0 4 10 -7 18 8 24 18 7 4 -6 11 -5 20 3 10 9 10 16 2 27 -6 8 -8 12 -3 8 10 -8 36 18 55 55 16 30 38 31 33 1 -3 -19 -3 -19 11 0 7 10 12 29 9 41 -2 14 2 24 12 28 9 4 16 2 16 -4 0 -10 44 15 69 39 10 10 16 10 21 2 7 -11 24 24 21 43 -1 5 3 6 9 2 5 -3 10 1 10 9 0 9 9 16 21 16 13 0 18 -4 13 -12 -4 -7 2 -5 13 5 13 12 20 29 19 47 -1 16 2 26 6 24 5 -3 16 0 24 7 8 7 14 8 12 3 -2 -5 2 -10 7 -11 6 -2 11 2 11 7 1 6 2 15 3 21 0 5 5 8 10 4 6 -3 8 4 6 15 -3 13 0 18 7 14 7 -5 9 -2 5 9 -3 9 -2 19 4 22 5 4 8 1 7 -6 -2 -7 4 -14 13 -16 11 -3 20 6 28 28 14 40 14 42 -1 33 -7 -4 0 5 16 20 20 20 31 24 36 16 6 -9 9 -9 13 1 4 10 6 10 6 2 1 -7 6 -13 12 -13 6 0 8 7 5 16 -5 13 -4 14 7 6 11 -9 13 -6 9 18 -4 30 6 38 24 20 7 -7 11 -6 11 4 0 8 -4 13 -9 10 -4 -3 -8 1 -8 8 1 18 39 67 40 49 0 -8 7 -4 18 9 19 23 48 20 36 -3 -3 -7 4 -1 15 12 13 14 19 32 17 47 -3 14 -1 22 5 19 8 -6 13 8 10 28 -2 16 10 6 20 -15 9 -22 9 -21 6 4 -5 32 0 35 19 10 13 -15 13 -14 5 10 -11 31 2 41 32 26 16 -8 18 -7 12 12 -4 12 -1 27 5 35 18 21 35 18 19 -2 -13 -16 -12 -17 4 -4 10 8 16 20 13 27 -3 8 4 19 15 24 13 7 19 19 17 33 -2 12 2 22 9 22 6 0 14 3 18 7 4 4 14 4 23 1 9 -4 13 -2 9 4 -4 6 4 20 18 31 14 11 28 34 31 51 4 17 10 31 15 31 4 0 15 7 24 16 11 11 19 13 28 6 9 -8 12 -1 13 25 0 21 8 41 17 48 9 7 17 18 18 26 0 8 4 5 9 -6 7 -17 9 -17 9 -2 1 9 6 17 11 17 6 0 10 9 10 19 0 11 5 23 10 26 6 3 10 1 10 -4 0 -15 17 -14 17 2 0 6 4 25 8 41 6 23 5 28 -6 22 -8 -4 -6 -1 4 7 9 8 17 19 17 25 0 6 5 14 12 18 6 4 8 3 5 -3 -3 -5 0 -10 7 -10 8 0 12 7 8 15 -3 10 -1 13 6 8 7 -4 12 -1 12 9 0 22 27 30 46 14 14 -11 15 -10 12 7 -2 11 2 18 9 17 8 -2 10 4 6 14 -5 12 -3 14 7 8 8 -5 11 -4 6 3 -3 6 1 17 9 25 8 9 15 22 15 31 0 8 5 18 10 21 6 4 8 16 5 27 -7 20 21 62 35 53 4 -3 15 10 24 28 8 17 16 27 16 21 0 -16 30 -13 30 3 0 8 4 11 10 8 6 -4 7 1 3 11 -4 11 1 22 13 31 13 10 15 16 7 21 -8 5 -8 12 3 26 12 17 14 18 14 3 0 -9 4 -17 10 -17 5 0 7 7 4 15 -8 19 14 47 30 38 6 -4 5 1 -3 10 -8 10 -11 20 -7 24 3 3 6 1 6 -5 0 -7 3 -12 8 -12 10 0 37 62 34 77 -2 8 3 10 13 7 11 -5 15 1 17 25 0 17 1 37 2 44 1 6 9 19 18 28 10 9 15 19 11 22 -3 4 7 10 23 13 28 5 30 8 29 50 -1 24 2 45 7 46 4 0 14 1 21 2 20 2 26 18 15 45 -5 14 -6 22 -2 19 8 -9 84 65 84 81 0 7 -6 9 -12 6 -7 -4 -5 0 4 8 12 9 14 17 7 24 -7 7 -4 14 7 24 16 12 17 12 10 -1 -7 -13 -6 -12 8 1 9 8 17 31 18 51 1 26 7 40 23 48 16 9 21 18 17 33 -4 14 -2 18 7 13 8 -5 12 -3 10 5 -4 35 3 51 34 69 17 11 27 20 21 20 -6 0 -11 7 -11 15 0 8 4 15 9 15 6 0 8 16 5 35 -3 19 -1 35 5 35 5 0 6 4 3 10 -3 6 1 10 9 10 9 0 16 5 16 10 0 6 5 10 11 10 17 0 46 33 32 37 -17 6 -4 41 19 46 16 5 18 9 8 26 -6 12 -8 21 -4 21 3 0 0 8 -7 17 -12 15 -12 16 4 10 11 -4 16 -3 12 3 -3 6 1 13 9 16 9 3 16 12 16 19 0 7 7 18 15 25 9 7 13 15 10 18 -3 3 0 11 6 18 7 8 7 14 -1 19 -5 3 -10 11 -10 16 0 6 4 8 9 5 4 -3 16 3 25 13 11 13 14 21 7 26 -18 10 -13 36 7 33 13 -2 17 4 17 27 0 17 7 38 15 48 8 10 15 21 15 25 0 4 4 13 8 20 5 6 4 12 -1 12 -5 0 -9 7 -9 15 0 8 7 15 15 15 12 0 13 9 9 45 -6 42 -5 46 17 55 21 8 24 15 24 55 0 29 7 53 16 64 9 10 14 20 11 23 -3 3 2 22 12 44 9 21 16 46 14 55 -1 9 3 29 9 44 8 22 8 30 -2 36 -9 6 -7 10 7 16 21 8 32 33 15 33 -19 0 -10 49 12 64 12 9 17 16 11 16 -11 0 -11 45 0 57 4 3 2 14 -4 24 -7 14 -6 19 4 19 9 0 14 10 13 28 -1 15 3 33 8 40 4 6 5 12 2 12 -4 0 -1 10 5 22 16 30 14 71 -6 101 -15 24 -15 26 4 32 12 3 21 15 21 26 0 10 6 19 13 19 7 1 5 6 -6 14 -13 10 -14 15 -5 18 8 3 13 27 15 69 1 35 3 64 3 64 1 0 3 27 3 60 1 33 6 66 10 73 5 6 5 16 2 22 -3 5 -2 26 4 45 6 21 6 37 0 41 -5 3 -7 10 -3 15 3 6 -1 16 -11 22 -16 13 -11 52 5 42 5 -3 11 -1 15 5 3 5 1 10 -6 10 -7 0 -8 4 -2 13 8 10 10 151 3 167 -1 3 -1 10 0 15 9 45 10 56 0 50 -5 -3 -10 1 -10 9 0 8 4 18 10 21 6 4 4 15 -6 30 -13 20 -13 27 -2 45 10 18 10 24 1 27 -16 6 -17 39 -2 49 8 4 7 9 -2 14 -10 7 -10 11 0 24 10 12 10 16 2 16 -7 0 -11 8 -10 18 1 9 -1 25 -6 35 -4 10 -2 23 4 31 8 10 9 16 1 21 -6 3 -8 11 -4 16 3 5 0 16 -6 24 -9 11 -10 18 -1 29 9 10 9 21 0 42 -6 16 -12 39 -13 52 -1 13 -6 26 -12 30 -11 8 -12 22 -1 38 10 17 -3 96 -19 112 -9 9 -11 18 -6 26 12 15 7 47 -10 57 -10 7 -10 9 0 9 6 0 12 5 12 11 0 5 -4 8 -9 5 -5 -4 -7 3 -4 14 3 11 1 20 -5 20 -6 0 -10 20 -10 45 1 24 -5 51 -12 60 -7 8 -9 15 -5 15 4 0 2 6 -4 14 -6 7 -9 20 -5 29 3 8 1 18 -5 22 -6 3 -8 17 -5 31 3 13 2 30 -4 37 -9 11 -24 59 -26 82 -1 6 -7 20 -13 31 -7 12 -10 24 -6 27 3 4 0 13 -7 22 -7 8 -10 24 -7 35 3 10 -4 35 -14 55 -11 20 -17 40 -14 45 3 5 -3 18 -14 29 -12 12 -17 27 -14 39 2 11 0 23 -6 26 -5 4 -7 14 -4 23 5 12 3 14 -7 8 -10 -6 -12 -4 -7 9 9 22 -22 84 -45 92 -15 4 -17 9 -7 20 7 9 8 18 2 27 -5 6 -10 22 -11 35 0 12 -8 29 -17 38 -9 9 -14 22 -11 30 3 7 -6 19 -19 28 -19 12 -22 21 -18 52 4 27 2 34 -8 29 -7 -5 -10 -4 -6 3 9 14 -30 105 -42 98 -5 -3 -7 4 -4 15 4 14 0 26 -10 34 -18 13 -42 63 -46 96 0 5 -6 7 -11 4 -6 -4 -13 7 -16 24 -4 17 -10 31 -15 31 -5 0 -6 6 -3 14 3 8 1 17 -5 20 -6 4 -7 14 -4 23 4 10 2 14 -5 9 -11 -7 -28 29 -24 52 2 6 -5 12 -14 12 -10 0 -14 5 -10 15 3 9 -1 18 -10 22 -8 3 -22 23 -31 44 -8 22 -19 39 -24 39 -5 0 -8 6 -6 13 1 6 -5 11 -13 10 -23 -4 -44 35 -29 53 9 11 8 15 -5 20 -9 3 -13 10 -10 15 3 5 0 9 -6 9 -7 0 -10 6 -8 12 6 17 -16 38 -38 38 -14 0 -15 2 -3 17 10 11 10 14 2 9 -7 -4 -13 -4 -14 1 -2 27 -9 47 -17 52 -5 3 -13 16 -16 29 -4 13 -21 36 -37 53 -16 16 -29 36 -29 44 0 8 -4 15 -9 15 -5 0 -19 19 -31 43 -22 43 -85 109 -94 99 -3 -3 -6 7 -6 22 0 15 -7 29 -16 33 -8 3 -13 12 -10 20 4 11 1 13 -14 8 -17 -5 -21 -1 -26 24 -4 17 -10 31 -15 31 -5 0 -9 6 -9 14 0 8 -9 18 -20 21 -36 11 -91 76 -84 98 5 16 3 19 -10 14 -13 -5 -18 1 -23 23 -3 16 -9 28 -13 25 -8 -5 -50 40 -50 54 0 5 -7 11 -15 15 -8 3 -15 12 -15 20 0 8 -13 17 -30 21 -20 4 -30 13 -30 25 0 15 -31 34 -52 31 -4 0 -12 8 -18 19 -7 14 -7 20 0 20 5 0 10 5 10 10 0 6 -9 10 -20 10 -11 0 -23 7 -26 15 -4 8 -9 13 -13 11 -4 -3 -8 4 -8 15 -2 24 -24 47 -41 41 -8 -2 -10 2 -5 14 5 14 3 16 -11 11 -14 -6 -16 -3 -11 14 5 14 3 19 -3 15 -6 -3 -19 4 -29 17 -20 26 -51 48 -38 28 5 -10 2 -9 -13 0 -12 7 -20 15 -20 18 2 22 -4 30 -19 24 -10 -4 -14 -2 -9 5 4 6 -3 12 -16 14 -13 2 -23 10 -24 18 -2 35 -5 40 -19 40 -8 0 -15 5 -15 11 0 6 -6 9 -14 6 -9 -4 -19 5 -26 24 -8 17 -20 29 -31 29 -11 0 -19 7 -19 15 0 8 -8 16 -17 16 -10 1 -22 2 -28 4 -5 1 -16 3 -23 3 -7 1 -12 8 -11 15 3 28 -2 39 -16 33 -10 -4 -15 1 -15 14 0 13 -7 20 -20 21 -41 3 -45 5 -43 27 2 12 -1 21 -5 20 -4 -1 -17 3 -28 10 -12 6 -25 8 -29 4 -5 -4 -5 1 -2 11 4 10 3 16 -3 12 -12 -7 -50 16 -50 32 0 6 -13 17 -29 24 -16 7 -28 16 -26 20 3 3 -7 11 -21 18 -14 6 -23 15 -20 20 3 5 -8 11 -25 15 -19 4 -33 13 -36 26 -3 13 -14 20 -28 20 -31 0 -56 10 -50 20 3 5 -4 11 -15 15 -11 3 -20 13 -20 21 0 8 -6 14 -14 14 -8 0 -17 7 -20 15 -3 9 -11 15 -18 14 -26 -3 -38 1 -38 14 0 8 -10 13 -22 13 -17 -1 -24 5 -26 22 -2 14 -10 22 -22 22 -11 0 -23 7 -27 15 -5 8 -21 16 -36 17 -15 1 -27 6 -27 10 0 4 -5 7 -12 5 -6 -1 -17 9 -24 23 -14 26 -49 44 -66 33 -7 -3 -8 -1 -4 5 4 7 1 12 -7 12 -8 0 -18 7 -21 15 -3 9 -11 15 -18 13 -7 -2 -24 8 -37 21 -15 15 -31 21 -46 18 -13 -2 -24 -1 -23 2 2 20 -4 31 -16 31 -8 0 -21 6 -28 13 -7 6 -20 12 -28 12 -8 0 -15 7 -15 15 0 8 -6 16 -12 16 -7 1 -16 3 -20 4 -5 1 -11 2 -15 1 -5 0 -8 5 -8 13 0 10 -7 12 -22 8 -14 -3 -19 -1 -14 6 3 6 -4 13 -16 17 -42 12 -108 45 -108 54 0 5 -11 12 -24 15 -14 3 -32 13 -41 22 -15 15 -32 21 -64 23 -8 1 -11 7 -7 17 5 13 2 15 -15 11 -27 -7 -51 2 -42 17 4 6 0 6 -9 -2 -12 -9 -18 -10 -23 -2 -4 6 -13 9 -20 6 -7 -2 -16 2 -19 11 -4 9 -9 14 -12 11 -3 -3 -24 12 -46 33 -30 28 -44 35 -50 26 -6 -9 -8 -9 -8 1 0 9 -7 11 -20 7 -14 -4 -20 -2 -20 9 0 19 -36 40 -56 32 -8 -3 -14 -1 -14 5 0 6 -4 8 -9 4 -5 -3 -12 -1 -16 5 -3 5 -15 10 -25 10 -10 0 -21 9 -25 19 -4 13 -13 18 -31 16 -14 -1 -32 4 -40 12 -7 8 -18 11 -24 8 -5 -3 -10 -1 -10 4 0 6 -7 11 -16 11 -8 0 -13 4 -9 9 7 13 -30 24 -54 16 -11 -3 -22 -1 -26 5 -3 6 -11 8 -16 5 -5 -4 -9 2 -9 12 0 14 -2 15 -9 4 -6 -9 -11 -10 -15 -3 -4 6 -13 9 -21 5 -8 -3 -15 0 -15 7 0 7 -7 10 -16 6 -8 -3 -12 -2 -9 4 3 6 1 10 -5 10 -6 0 -9 4 -6 9 7 11 -17 21 -50 21 -16 0 -22 4 -18 15 5 12 1 13 -25 4 -26 -9 -33 -8 -52 10 -13 12 -19 21 -13 22 13 2 -57 20 -86 23 -34 3 -81 27 -74 37 7 11 1 11 -31 -1 -22 -8 -30 -6 -52 16 -15 15 -31 23 -41 19 -20 -7 -104 34 -96 47 4 5 -4 9 -17 8 -13 -1 -31 -2 -39 -1 -13 1 -13 2 0 12 12 8 12 9 -5 7 -11 -1 -35 5 -53 14 -19 10 -29 12 -25 5 4 -7 -1 -5 -11 3 -11 8 -29 13 -42 12 -14 -2 -24 2 -24 8 0 7 -7 10 -15 7 -8 -4 -17 -2 -20 3 -4 6 -15 10 -26 10 -10 0 -19 4 -19 9 0 5 -8 8 -17 7 -10 -2 -24 3 -32 11 -8 8 -20 11 -30 7 -33 -14 -67 -11 -88 9 -13 11 -26 18 -29 14 -4 -3 -13 1 -21 9 -9 9 -23 12 -35 8 -13 -4 -18 -2 -14 4 3 6 -2 13 -11 16 -40 12 -80 19 -115 20 -21 1 -47 9 -60 21 -26 22 -53 26 -86 14 -17 -7 -27 -4 -43 12 -17 17 -23 19 -30 8 -6 -10 -9 -11 -9 -1 0 6 -9 12 -19 12 -11 0 -21 6 -23 12 -3 7 -18 11 -37 10 -22 -2 -30 1 -25 9 4 8 -3 9 -26 4 -21 -5 -30 -4 -26 3 3 5 -1 12 -9 16 -8 3 -15 0 -15 -7 0 -9 -2 -9 -8 0 -4 7 -25 12 -46 11 -21 -1 -41 4 -45 10 -4 7 -20 11 -36 10 -16 -2 -30 2 -32 9 -2 6 -13 8 -25 5 -16 -4 -19 -2 -13 8 6 10 4 11 -11 5 -26 -11 -94 -14 -88 -3 3 4 0 8 -6 8 -6 0 -8 5 -4 12 5 7 3 8 -6 3 -7 -4 -16 -2 -20 5 -5 9 -13 9 -25 2 -21 -11 -57 -4 -48 10 4 7 -6 9 -25 6 -21 -3 -33 0 -36 9 -5 11 -10 11 -27 3 -16 -9 -24 -9 -33 1 -8 9 -8 10 4 4 11 -6 12 -5 4 4 -6 7 -21 12 -33 12 -24 -1 -60 0 -78 1 -7 1 -13 7 -13 14 0 9 -13 12 -42 9 -47 -3 -71 3 -63 15 3 5 -9 6 -28 3 -23 -3 -37 0 -46 11 -15 18 -42 21 -58 5 -15 -15 -69 -14 -88 1 -8 7 -15 9 -15 5 0 -5 -8 2 -19 14 -12 14 -32 22 -60 24 -22 1 -41 5 -41 9 0 4 -7 5 -15 2 -8 -4 -22 -1 -29 5 -10 8 -16 9 -21 1 -10 -16 -35 -12 -35 5 0 13 -7 15 -36 9 -28 -5 -35 -4 -29 6 6 9 -1 11 -26 8 -19 -3 -42 -8 -51 -12 -11 -5 -23 -1 -34 13 -17 19 -19 19 -36 4 -17 -15 -20 -15 -41 4 -29 27 -48 32 -71 21 -14 -8 -21 -6 -28 7 -7 12 -17 15 -35 10 -14 -3 -30 -2 -36 3 -7 5 -19 9 -27 10 -8 0 -35 3 -60 5 -25 3 -49 6 -53 6 -5 1 -6 5 -3 9 3 5 -17 5 -44 1 -28 -4 -60 -5 -73 -3 -12 3 -31 7 -41 8 -11 1 -22 8 -24 15 -3 9 -8 9 -20 -1 -9 -7 -13 -8 -9 -2 9 15 -31 26 -53 14 -19 -10 -60 -2 -60 12 0 5 -10 3 -22 -3 -17 -9 -24 -9 -32 2 -7 9 -32 14 -74 14 -35 0 -66 4 -69 9 -4 5 -1 6 7 1 9 -5 11 -4 6 3 -5 9 -13 9 -27 2 -11 -6 -19 -7 -19 -1 0 5 -10 7 -22 3 -12 -3 -19 -1 -15 5 4 5 -19 8 -59 7 -40 -2 -64 1 -64 8 0 6 -10 8 -25 4 -14 -4 -25 -2 -25 3 0 10 -35 6 -74 -9 -19 -7 -28 -5 -42 11 -9 10 -19 17 -22 14 -3 -3 -11 0 -18 6 -8 7 -24 7 -47 1 -25 -7 -39 -6 -47 2 -6 6 -32 12 -58 14 -97 5 -110 7 -105 15 6 10 -29 9 -47 -3 -9 -6 -19 -5 -28 3 -18 15 -40 18 -48 6 -3 -5 -10 -9 -15 -9 -6 0 -7 4 -4 10 3 5 -4 10 -17 9 -36 0 -116 8 -125 14 -4 3 -29 4 -55 3 -27 -2 -48 1 -48 7 0 9 -28 5 -66 -10 -12 -4 -15 -3 -10 5 8 13 9 13 -56 16 -26 1 -50 4 -53 7 -3 3 -25 3 -50 -1 -24 -4 -42 -3 -39 2 3 4 -1 8 -8 9 -7 0 -23 2 -36 3 -13 2 -25 -1 -28 -6 -3 -4 -16 -8 -30 -8 -16 0 -23 4 -18 11 4 8 -1 9 -15 4 -12 -4 -27 -2 -34 3 -7 6 -28 10 -47 11 -19 0 -57 1 -85 2 -27 1 -57 0 -65 -2 -8 -2 -14 1 -13 7 1 6 -21 10 -60 9 -34 -1 -66 1 -72 4 -15 8 -94 7 -88 -1 2 -5 -1 -8 -6 -8 -6 0 -11 4 -11 9 0 6 -9 8 -20 6 -11 -2 -18 0 -15 6 4 5 -1 9 -9 9 -9 0 -16 -4 -16 -8 0 -4 -9 -8 -20 -9 -11 -1 -20 2 -20 6 0 12 -43 19 -66 11 -10 -4 -24 -3 -31 2 -7 5 -14 5 -18 -2 -3 -5 -13 -10 -21 -10 -8 0 -13 4 -10 9 3 5 -10 7 -29 5 -20 -1 -33 1 -30 6 3 5 -5 7 -17 4 -13 -3 -39 -7 -60 -8 -29 -2 -35 0 -30 12 4 11 1 13 -7 7 -20 -12 -80 -15 -87 -4 -3 6 -10 6 -17 1 -7 -5 -22 -12 -35 -15 -17 -4 -22 -2 -18 8 3 9 -3 12 -20 10 -14 -1 -27 -5 -31 -9 -3 -3 -13 0 -21 7 -13 10 -14 9 -7 -3 7 -13 6 -13 -7 -2 -11 9 -18 10 -23 2 -11 -18 -56 -12 -62 10 -4 16 -9 18 -25 9 -12 -6 -18 -7 -14 -1 3 6 -22 9 -69 7 -41 -1 -75 2 -75 6 0 4 -10 5 -22 3 -13 -3 -33 -8 -45 -11 -13 -3 -23 -1 -23 6 0 7 -17 9 -50 6 -35 -4 -50 -2 -50 7 0 9 -3 9 -11 1 -7 -7 -21 -8 -41 -2 -18 5 -38 5 -47 0 -10 -6 -24 -5 -34 0 -9 6 -17 7 -17 3 0 -3 -6 -1 -14 5 -11 9 -20 10 -35 1 -15 -8 -26 -7 -40 2 -15 9 -23 9 -34 0 -11 -10 -20 -9 -42 2 -19 10 -35 12 -51 6 -15 -6 -24 -5 -27 3 -3 9 -8 9 -18 0 -16 -16 -49 -17 -49 -2 0 6 -9 9 -20 6 -11 -3 -22 -1 -25 3 -3 5 -19 6 -35 4 -18 -3 -30 -1 -30 6 0 7 -7 8 -17 3 -23 -11 -104 -10 -121 1 -8 5 -19 3 -25 -3 -14 -14 -50 -15 -42 -1 7 11 -67 8 -96 -4 -11 -5 -19 -1 -23 10 -5 13 -9 14 -21 4 -10 -8 -15 -9 -15 -2 0 13 -37 11 -65 -4 -25 -13 -32 -12 -74 10 -18 10 -30 13 -27 8 3 -6 -2 -13 -13 -17 -25 -8 -73 4 -65 17 4 6 -1 6 -13 -1 -11 -6 -23 -8 -25 -5 -11 10 -92 13 -103 4 -15 -12 -47 -2 -39 12 4 6 -2 5 -14 -1 -14 -7 -23 -8 -27 -1 -4 6 -17 4 -35 -5 -29 -15 -60 -11 -60 6 0 6 -9 5 -20 -1 -11 -6 -25 -8 -30 -5 -5 3 -11 1 -14 -4 -4 -6 -18 -5 -35 2 -17 6 -28 15 -25 19 3 4 -7 3 -21 -4 -20 -9 -31 -9 -44 -1 -10 6 -31 10 -47 8 -16 -1 -32 2 -36 9 -6 8 -10 8 -16 -2 -12 -18 -49 -23 -61 -8 -13 15 -78 19 -86 6 -9 -15 -45 -12 -42 3 1 6 -5 12 -13 12 -8 0 -18 5 -22 10 -5 6 -8 3 -8 -6 0 -12 -8 -16 -30 -15 -16 0 -30 4 -30 8 0 5 -5 8 -11 8 -5 0 -7 -6 -3 -12 6 -9 3 -9 -9 1 -11 9 -26 11 -44 5 -16 -4 -32 -8 -38 -9 -5 0 -16 -4 -23 -8 -8 -6 -15 0 -21 15 -6 13 -10 16 -10 9 -1 -11 -4 -12 -13 -3 -7 7 -17 8 -29 1 -23 -12 -104 -5 -123 10 -11 9 -20 9 -34 2 -11 -6 -22 -8 -26 -4 -9 10 -109 11 -129 1 -12 -6 -19 -4 -23 7 -7 18 -46 20 -76 4 -15 -8 -19 -8 -13 1 5 8 -2 11 -21 10 -16 -1 -31 -1 -34 0 -20 8 -70 5 -97 -7 -29 -12 -34 -12 -39 2 -3 8 -10 12 -15 9 -5 -3 -9 -1 -9 5 0 9 -52 7 -69 -4 -5 -3 -11 0 -13 6 -3 9 -9 9 -26 0 -15 -8 -22 -8 -22 -1 0 6 -4 9 -9 6 -5 -4 -11 0 -14 6 -3 10 -7 10 -20 -1 -12 -9 -21 -10 -29 -4 -23 18 -66 24 -71 10 -4 -9 -6 -8 -6 2 -1 11 -6 10 -26 -3 -18 -12 -24 -13 -23 -4 2 8 -9 14 -26 16 -18 2 -26 0 -22 -7 4 -7 1 -8 -8 -5 -9 3 -16 9 -16 13 0 11 -104 11 -148 0 -35 -10 -45 -9 -60 3 -11 11 -35 15 -72 14 -30 -1 -58 2 -62 7 -3 6 -22 10 -42 9 -19 -1 -38 3 -41 8 -3 6 -15 6 -31 0 -32 -12 -47 -13 -40 -1 3 5 -15 7 -42 5 -26 -1 -59 2 -74 7 -19 8 -37 8 -64 -1 -27 -9 -39 -10 -42 -2 -2 7 -15 9 -33 5 -19 -3 -29 -1 -29 6 0 8 -5 9 -18 2 -10 -5 -23 -6 -30 -2 -7 4 -25 6 -42 5 -16 -1 -34 4 -40 11 -6 8 -18 11 -25 9 -8 -3 -20 -2 -27 2 -19 12 -51 13 -70 2 -12 -5 -18 -5 -18 1 0 6 -6 8 -14 5 -8 -3 -17 -1 -21 5 -3 6 -11 11 -16 11 -6 0 -7 -6 -2 -12 4 -8 -4 -6 -18 3 -17 12 -30 14 -41 8 -20 -11 -50 -1 -41 15 5 7 2 7 -8 -1 -9 -7 -20 -8 -29 -3 -7 5 -24 4 -39 -1 -20 -8 -28 -7 -38 7 -8 11 -21 15 -38 12 -14 -3 -28 -1 -31 4 -3 5 -12 4 -21 -3 -12 -10 -16 -10 -23 1 -4 7 -17 11 -29 7 -12 -3 -21 -2 -21 3 0 4 -11 10 -25 12 -13 3 -23 2 -20 -1 2 -4 -5 -7 -15 -7 -10 0 -16 4 -14 8 7 11 -18 10 -35 -1 -18 -11 -43 -3 -34 12 4 7 -4 8 -25 4 -17 -4 -34 -2 -37 3 -4 7 -13 6 -25 0 -19 -10 -50 -4 -61 13 -4 5 -15 5 -27 -2 -26 -14 -45 -14 -37 -1 8 13 -1 13 -26 -2 -17 -11 -23 -10 -37 7 -18 21 -33 27 -67 29 -11 1 -26 5 -32 9 -7 4 -21 4 -31 -2 -10 -5 -24 -6 -32 -1 -7 4 -19 6 -27 3 -7 -3 -13 0 -13 6 0 9 -5 9 -21 0 -12 -6 -19 -7 -15 -1 8 13 -19 23 -41 15 -10 -4 -14 -2 -9 5 4 7 -9 9 -44 6 -37 -3 -52 0 -56 10 -4 9 -16 13 -34 11 -16 -2 -32 0 -35 6 -4 5 -11 7 -16 4 -5 -4 -9 -1 -9 4 0 6 -7 11 -16 11 -8 0 -13 -4 -10 -9 4 -5 -3 -7 -14 -4 -11 3 -17 10 -13 16 4 7 0 8 -13 2 -27 -12 -68 -9 -72 4 -3 9 -8 9 -18 0 -11 -9 -18 -8 -30 2 -9 8 -31 14 -48 14 -17 0 -43 9 -58 19 -16 10 -35 16 -43 12 -8 -3 -15 -2 -15 2 0 13 -84 19 -127 9 -16 -4 -28 1 -42 19 -21 27 -53 35 -93 23 -22 -6 -28 -4 -33 12 -6 16 -12 19 -36 14 -19 -4 -29 -3 -29 5 0 7 -8 9 -21 5 -16 -5 -19 -4 -14 5 5 9 2 10 -14 5 -11 -3 -26 -3 -33 1 -7 5 -21 9 -30 11 -36 6 -63 11 -68 13 -3 1 -8 2 -12 1 -5 0 -8 3 -8 8 0 5 -17 9 -37 9 -21 0 -39 5 -41 10 -2 6 -10 8 -18 5 -8 -3 -14 -1 -14 4 0 9 -21 13 -82 14 -24 1 -36 5 -31 12 4 6 -1 8 -13 5 -11 -3 -26 1 -33 9 -7 8 -19 12 -27 9 -7 -3 -16 -1 -19 4 -3 5 -12 7 -20 4 -8 -4 -18 1 -21 10 -5 12 -10 14 -19 6 -9 -8 -15 -8 -20 0 -3 6 -10 8 -15 5 -4 -3 -10 1 -13 9 -4 10 -17 13 -46 9 -28 -4 -44 -1 -55 10 -8 8 -13 17 -10 20 3 3 -13 3 -35 0 -45 -6 -101 12 -101 33 0 8 -6 11 -15 8 -8 -3 -21 1 -30 10 -9 8 -22 13 -30 10 -8 -4 -15 -1 -15 6 0 10 -4 9 -16 -1 -12 -10 -17 -10 -23 0 -4 6 -18 13 -29 14 -12 1 -24 9 -28 19 -4 14 -10 15 -32 7 -32 -12 -32 -12 -55 9 -10 9 -26 17 -35 18 -9 2 -18 7 -20 13 -2 5 -10 7 -18 4 -8 -3 -14 1 -14 8 0 7 -3 9 -7 6 -3 -4 -13 -1 -21 6 -13 10 -15 9 -8 -3 7 -13 6 -13 -6 0 -7 8 -20 16 -28 18 -8 2 -30 10 -49 18 -19 10 -45 14 -62 10 -20 -4 -29 -2 -29 8 0 7 -6 13 -12 14 -32 2 -50 9 -58 22 -4 7 -15 10 -24 7 -10 -4 -19 -1 -22 7 -3 8 -26 17 -50 21 -26 4 -48 13 -51 22 -3 9 -13 13 -25 10 -11 -3 -21 0 -24 7 -3 8 -15 11 -30 8 -17 -3 -31 2 -45 17 -11 11 -28 21 -38 21 -10 0 -24 7 -31 15 -7 8 -16 12 -22 9 -5 -3 -14 -2 -21 3 -7 5 -32 11 -57 12 -51 3 -63 8 -55 22 4 5 0 9 -8 9 -7 0 -24 11 -37 25 -13 14 -26 23 -28 20 -3 -3 -12 0 -19 7 -11 9 -17 9 -24 -3 -7 -11 -9 -9 -9 7 0 21 -18 32 -68 39 -13 2 -29 8 -35 13 -7 5 -22 8 -34 7 -14 -1 -23 4 -23 12 0 7 -6 13 -14 13 -8 0 -28 12 -45 26 -17 14 -37 24 -43 22 -7 -3 -18 0 -25 6 -33 29 -41 34 -47 29 -3 -3 -8 2 -12 11 -3 9 -14 16 -23 16 -9 0 -27 7 -41 15 -44 25 -95 49 -105 50 -6 0 -25 10 -42 23 -18 13 -38 19 -48 16 -11 -5 -18 0 -22 15 -3 11 -9 18 -14 15 -5 -3 -12 2 -15 10 -3 9 -14 16 -23 16 -9 0 -29 9 -45 19 -17 11 -33 18 -37 15 -5 -3 -15 6 -24 20 -10 14 -22 23 -31 19 -8 -3 -14 0 -14 7 0 6 -4 9 -9 5 -6 -3 -15 4 -21 15 -6 11 -16 20 -23 19 -26 -3 -37 2 -37 16 0 8 -9 15 -19 15 -11 0 -26 6 -33 13 -13 14 -19 17 -50 25 -10 2 -18 13 -18 24 0 16 -6 18 -37 16 -30 -2 -39 1 -49 20 -17 33 -45 57 -73 60 -29 3 -51 19 -51 37 0 7 -16 16 -35 19 -22 4 -41 17 -51 32 -9 13 -19 22 -22 20 -2 -3 -20 10 -39 29 -19 19 -39 32 -44 29 -5 -3 -9 2 -9 10 0 9 -8 16 -19 16 -11 0 -23 5 -26 10 -4 6 -10 8 -15 5 -4 -3 -6 4 -3 16 5 18 3 20 -16 14 -15 -5 -21 -2 -21 9 0 15 -17 21 -49 17 -8 -2 -10 2 -6 10 5 7 3 10 -6 7 -7 -2 -23 6 -35 19 -13 14 -26 24 -31 23 -4 0 -9 8 -11 20 -2 11 -8 18 -13 15 -5 -4 -9 1 -9 9 0 9 -4 17 -10 17 -5 1 -14 3 -20 4 -5 1 -14 3 -19 4 -5 0 -11 11 -13 24 -2 16 -11 23 -30 25 -17 2 -28 9 -28 18 0 8 -4 12 -10 9 -5 -3 -10 -1 -10 4 0 6 -6 11 -14 11 -8 0 -16 7 -20 15 -3 8 -13 15 -21 15 -11 0 -15 7 -13 22 2 13 -3 23 -9 24 -7 1 -17 2 -23 3 -5 0 -10 8 -10 17 0 8 -4 12 -10 9 -6 -3 -10 0 -10 8 0 13 -38 55 -46 50 -12 -8 -23 -1 -18 11 3 8 -1 18 -8 22 -13 9 -18 10 -39 13 -6 0 -9 7 -6 15 4 10 -8 20 -39 32 -33 13 -44 22 -41 34 2 9 -2 25 -9 35 -8 10 -14 15 -14 9 0 -5 -16 9 -35 30 -19 22 -35 44 -35 48 0 5 -4 7 -9 3 -5 -3 -12 4 -16 15 -4 11 -15 20 -26 20 -11 0 -18 4 -14 9 7 12 -38 57 -65 66 -12 4 -19 14 -18 23 2 11 -5 18 -19 20 -17 2 -23 10 -23 27 0 15 -7 26 -20 30 -11 3 -20 14 -20 24 0 12 -10 20 -30 24 -24 5 -31 14 -40 47 -6 22 -17 40 -24 40 -8 0 -16 10 -20 23 -3 12 -21 40 -41 62 -53 60 -56 65 -49 65 4 0 -1 9 -11 20 -10 11 -25 20 -33 20 -9 0 -12 3 -9 6 10 10 -12 44 -28 44 -9 0 -15 10 -15 26 0 17 -6 28 -20 31 -11 3 -20 14 -20 24 0 13 -5 17 -17 12 -11 -4 -14 -3 -9 6 5 8 0 20 -13 32 -12 11 -19 25 -15 30 3 6 -6 21 -20 34 -14 13 -26 31 -26 40 0 9 -13 29 -30 45 -16 16 -30 35 -30 41 0 6 -12 22 -26 35 -14 14 -22 29 -18 36 4 7 3 8 -4 4 -8 -5 -12 2 -12 18 0 15 -5 25 -12 23 -7 -1 -14 8 -16 20 -2 12 -10 27 -18 33 -8 7 -14 19 -14 27 0 7 -7 16 -15 19 -8 4 -12 10 -9 16 3 5 -3 17 -13 26 -11 9 -23 30 -27 45 -3 15 -11 25 -16 22 -6 -3 -10 3 -10 14 0 11 -11 37 -25 57 -14 20 -25 43 -25 50 0 8 -5 14 -11 14 -5 0 -8 4 -5 9 4 5 -5 23 -19 40 -14 16 -28 40 -30 52 -3 12 -17 40 -31 61 -15 21 -28 47 -29 56 0 10 -12 32 -25 51 -14 18 -24 37 -23 42 2 5 -12 37 -29 71 -18 35 -33 70 -35 78 -1 8 -9 20 -17 26 -9 6 -16 25 -16 42 0 17 -6 32 -15 36 -8 3 -15 14 -15 25 0 11 -5 21 -11 23 -6 2 -11 16 -11 31 0 15 -6 31 -13 37 -7 6 -11 19 -8 29 2 10 -3 25 -12 35 -9 9 -18 30 -20 46 -2 17 -14 44 -25 60 -12 17 -19 34 -15 39 3 5 0 13 -6 16 -5 4 -8 13 -5 21 3 7 1 16 -5 19 -5 4 -7 11 -4 16 4 5 1 9 -4 9 -6 0 -11 6 -11 13 0 6 -7 25 -15 41 -9 16 -17 37 -18 45 -1 9 -6 22 -10 29 -5 6 -5 12 -1 12 4 0 -1 8 -10 19 -9 10 -16 22 -14 27 4 17 -13 84 -22 84 -6 0 -10 8 -10 18 0 10 -6 26 -14 37 -7 11 -16 36 -19 56 -2 19 -9 45 -16 56 -6 12 -11 30 -11 40 0 11 -5 24 -12 31 -7 7 -13 22 -13 35 -1 28 -11 60 -36 115 -11 24 -21 57 -22 73 -1 16 -5 29 -9 29 -4 0 -7 8 -6 18 0 9 -2 26 -5 37 -16 67 -29 113 -37 135 -5 14 -12 39 -15 57 -3 18 -10 45 -17 60 -6 15 -12 33 -13 38 -1 6 -3 12 -4 15 -1 3 -4 27 -7 54 -3 27 -9 57 -14 67 -6 10 -10 27 -10 39 0 11 -7 32 -16 45 -13 20 -14 28 -4 40 7 9 8 15 2 15 -6 0 -9 8 -8 18 2 9 -3 26 -11 38 -7 12 -11 29 -7 38 3 9 2 22 -4 29 -6 6 -8 27 -6 46 2 19 -1 40 -8 48 -6 8 -13 33 -15 56 -4 49 -8 89 -18 177 -5 36 -9 79 -9 95 -1 17 -4 35 -7 40 -3 6 -5 39 -5 74 1 43 -2 65 -11 68 -7 3 -10 10 -6 17 4 6 9 99 10 206 3 257 8 404 15 416 7 10 20 133 21 192 0 17 4 32 7 32 4 0 7 15 7 33 0 17 3 39 6 47 11 30 25 115 20 123 -2 4 0 13 5 20 5 7 15 45 23 85 7 40 16 75 20 78 5 2 6 10 3 17 -3 8 2 26 10 42 8 16 13 32 11 36 -3 4 2 20 10 35 8 16 15 39 15 50 0 12 6 27 14 33 8 7 20 34 26 61 6 27 18 54 26 61 8 6 14 17 14 24 0 7 7 19 16 26 9 7 20 24 25 37 5 14 12 22 15 19 3 -2 16 5 30 18 14 13 41 26 60 30 24 4 38 13 41 26 3 10 9 16 14 13 13 -8 11 10 -3 25 -11 11 -10 12 0 6 11 -6 12 -3 3 14 -8 14 -21 21 -39 21 -16 0 -33 5 -38 10 -6 6 -13 8 -16 5z" fill="inherit" transform="matrix(.1 0 0 -.1 0 3600)"/></g></svg>