<?xml version="1.0" encoding="UTF-8" standalone="no"?><svg xmlns="http://www.w3.org/2000/svg" xmlns:xlink="http://www.w3.org/1999/xlink" fill="#000000" height="284.3" preserveAspectRatio="xMidYMid meet" version="1" viewBox="-1.7 -1.1 358.3 284.3" width="358.3" zoomAndPan="magnify"><linearGradient gradientUnits="userSpaceOnUse" id="a" x1="140.669" x2="233.879" xlink:actuate="onLoad" xlink:show="other" xlink:type="simple" y1="23.701" y2="274.319"><stop offset="0" stop-color="#ebe4dd"/><stop offset="1" stop-color="#ebe4dd"/></linearGradient><path d="M148.14,283.28c-2.65,0-5.44-0.58-8.39-1.99c-7.43-3.54-11.17-10.76-14.78-17.74c-1.71-3.3-3.48-6.72-5.59-9.59 c-11.51-15.65-34.53-17.47-55.2-17.95c-18.99-0.44-38.61-1.88-51.63-13.9c-12.95-11.96-14.25-30.86-11.15-44.56 c5.81-25.64,25-57.37,49.12-65.66c5.67-1.95,11.61-2.7,17.35-3.42c5.84-0.74,11.35-1.43,16.6-3.28 c17.2-6.04,27.68-22.85,37.81-39.11c1.48-2.37,2.95-4.73,4.43-7.04c7.65-11.93,28.3-39.09,54.71-33.79 c6.9,1.39,12.98,4.87,18.87,8.24c5.62,3.22,10.94,6.27,16.84,7.58c17.12,3.8,31.93-7.42,47.61-19.29 c14.84-11.24,30.19-22.85,48.37-21.71c22.57,1.42,36.13,22.66,39.18,41.79c4.31,27.01-13.88,51.73-25.11,64.06 c-8.12,8.92-17.58,17.19-26.74,25.19c-18.68,16.33-38.01,33.22-47,56.51c-2.35,6.09-4.14,12.27-5.87,18.26 c-4.96,17.19-9.66,33.43-26.51,45.73c-0.39,0.28-0.78,0.56-1.17,0.83c-8.17,5.61-17.37,8.37-26.27,11.03 c-8.5,2.54-16.52,4.95-23.59,9.63c-1.03,0.69-2.06,1.4-3.09,2.11C161.39,279.05,155.27,283.28,148.14,283.28z M174.66,29.58 c-20.72,0-37.24,22.02-43.74,32.16c-1.47,2.29-2.93,4.63-4.4,6.98c-10.59,16.99-21.54,34.56-40.4,41.18 c-5.75,2.02-11.79,2.78-17.63,3.52c-5.75,0.73-11.17,1.41-16.35,3.19c-16.72,5.75-38.48,29.44-45.86,62.03 c-2.79,12.34-1.72,29.27,9.66,39.78c11.73,10.84,30.32,12.15,48.35,12.57c21.86,0.51,46.26,2.52,59.11,19.99 c2.34,3.18,4.2,6.78,6,10.25c3.38,6.54,6.57,12.71,12.49,15.52c8.28,3.94,14.74-0.52,22.23-5.69c1.06-0.73,2.11-1.46,3.17-2.16 c7.68-5.09,16.44-7.71,24.92-10.25c8.53-2.55,17.35-5.2,24.88-10.36h0c0.35-0.24,0.7-0.49,1.05-0.75 c15.47-11.29,19.93-26.73,24.65-43.08c1.76-6.09,3.58-12.38,6.01-18.67c9.44-24.44,29.23-41.74,48.37-58.47 c9.05-7.91,18.4-16.09,26.33-24.79c10.62-11.67,27.85-34.96,23.87-59.91c-2.83-17.78-15.62-36.39-34.56-37.58 c-16.32-1.02-30.93,10.02-45.04,20.71c-15.9,12.04-32.34,24.48-51.71,20.18c-6.65-1.48-12.54-4.85-18.25-8.12 c-5.79-3.32-11.26-6.45-17.36-7.68C178.49,29.77,176.56,29.58,174.66,29.58z" fill="url(#a)"/></svg>