<?xml version="1.0" encoding="UTF-8" standalone="no"?><svg xmlns="http://www.w3.org/2000/svg" xmlns:xlink="http://www.w3.org/1999/xlink" fill="#000000" height="671.7" id="Text" preserveAspectRatio="xMidYMid meet" version="1.1" viewBox="99.8 163.2 800.0 671.7" width="800" x="0" xml:space="preserve" y="0" zoomAndPan="magnify"><g id="change1_1"><path d="M878.09,541.14c-4.6-1.81-9.43-3.38-14.31-4.01c-42.92-5.35-85.61-3.22-126.77,9.94 c-49.41,15.84-92.73,43.4-132.9,75.94c0,0,0,0,0,0c0,0,0-0.01,0.01-0.01c0.01-1.46,0.02-2.92,0.03-4.38c0,0,0,0,0-0.01 c28.89-57.39,54.99-115.96,72.48-177.95c20.67-73.15,28.34-147.25,13.01-222.56c-2.55-12.54-4.87-25.24-10.02-37.03 c-6.49-14.9-17.77-17.89-31.01-9.24c-5.15,3.38-9.63,7.51-13.4,12.22c-45.36,56.88-84.16,117.57-108.25,186.83 c-11.83,34.04-20.12,68.98-27.95,104.08c-1.33-0.69-2.67-1.37-4-2.06c0-0.01-0.01-0.01-0.01-0.02c-0.67-4.56-1.57-9.12-2-13.72 c-4.91-52.32-16.15-103.26-34.63-152.48c-9.71-25.75-20.4-51.1-40.72-70.75c-15.21-14.7-34.16-12.11-44.89,6.13 c-2.87,4.87-5.15,10.22-6.92,15.57c-8.96,27-10.26,55.19-12.11,83.18c-1.93,29.44-3.22,58.96-0.43,88.56 c2.24,24.06,4.6,48.07,7.78,72.05c2.79,20.72,7.08,41.08,11.01,61.91c-20.32-25.16-42.61-48.11-65.96-70.05 c-33.45-31.41-69.42-59.16-113.68-74.21c-9.79-3.34-19.61-6.72-29.83-7.98c-36.64-4.56-58.45,20.32-50.24,56.84 c6.6,29.4,22.44,53.69,42.81,75.24c44.97,47.64,98.19,85.61,148.78,126.65c14.54,11.75,29.44,23.03,45.99,35.93 c-19.97-1.45-37.54-2.28-54.99-4.09c-39.82-4.09-79.52-4.56-119.02,2.71c-22.13,4.09-44.18,9.24-61.08,25.63 c-15.09,14.66-13.32,31.09,3.77,43.2c12.19,8.61,26.14,12.81,40.21,16.82c40.88,11.71,82.98,11.99,124.92,12.62 c20.75,0.31,41.16,2.63,61.52,6.17c24.13,4.17,48.07,11.79,72.84,8.45c12.93-1.77,23.74,1.3,34.59,7.15 c4.09,2.2,8.18,4.72,12.62,5.86c17.69,4.6,34.67,4.56,47.96-10.73c4.91-5.62,11.6-8.25,18.08-11.12 c13.99-6.21,28.15-12.03,42.3-17.96c96.74-40.68,188.17-90.6,269.26-157.86c19.14-15.92,37.03-33.65,48.94-56.09 C899.82,561.43,894.16,547.35,878.09,541.14z M496.8,483.75c0.78-0.27,0.12,0.43-0.43,0.51c0.15-0.17,0.25-0.34,0.38-0.51 C496.77,483.75,496.78,483.75,496.8,483.75z M863.07,573.3c-22.56,30.7-52.91,52.48-83.22,74.49 c-77,55.9-162.14,96.54-248.98,134.12c-11.79,5.11-23.78,10.22-33.88,18.16c-10.61,8.37-20.83,7.94-31.6,1.53 c-16.19-9.67-33.06-13.36-52.16-10.14c-17.45,2.95-34.55-3.22-51.61-6.45c-26.65-4.99-53.38-7.9-80.54-8.37 c-41.94-0.75-84.16-0.98-124.61-14.78c-5.39-1.81-10.65-4.05-15.8-6.49c-2.67-1.3-7-1.97-6.72-5.82c0.2-3.42,4.13-4.72,6.76-6.25 c16.35-9.55,34.67-12.93,53.03-15.21c40.17-4.99,80.27-1.93,120.48,1.1c28.77,2.2,57.04,8.14,85.85,9.47 c3.5,0.16,7.27,0.12,10.53-0.98c5.58-1.85,10.49-5.27,11.16-11.71c0.79-7.19-2.95-12.34-9.12-15.61 c-15.45-8.14-31.13-15.8-45.6-25.75c-36.79-25.2-69.65-55.42-105.46-81.88c-27-19.97-51.41-42.92-75.82-65.8 c-21.74-20.4-40.25-43.47-47.21-73.66c-4.83-20.95,3.22-29.6,24.06-25.08c36.32,7.82,67.88,25.27,96.42,48.58 c59.32,48.55,106.68,107.62,149.57,170.6c3.38,4.99,5.42,10.85,10.1,15.02c3.81,3.42,7.94,5.23,12.66,3.14 c4.8-2.08,7.94-5.78,8.1-11.56c0.16-4.83-1.18-9.04-3.38-13.25c-30.35-57.51-46.54-118.91-53.07-183.45 c-2.36-23.39-5.19-46.89-4.87-70.16c0.51-42.92,0.43-86.24,11.79-128.26c1.42-5.19,1.61-12.93,8.33-13.52 c5.62-0.43,7.94,6.45,10.81,10.77c23.07,35.14,35.06,74.72,44.5,115.05c12.46,53.18,18.59,107.19,17.73,161.95 c0.2,32.43-1.45,64.74-6.09,96.89c-0.75,4.91-0.51,9.98-0.43,14.98c0.16,6.96,3.81,11.48,10.61,12.74 c7.67,1.45,12.74-2.59,14.47-9.55c2.16-8.61,3.38-17.45,4.48-26.26c5.07-41.04,16-80.9,24.29-121.26 c9.28-44.97,18.83-89.82,34-133.33c21.5-61.75,56.45-115.68,95.32-167.45c2.44-3.26,5.42-8.92,9.28-7.82 c4.48,1.3,3.66,7.74,4.64,12.07c17.37,79.32,9.71,157.27-14.94,233.76c-24.33,75.55-55.9,147.99-99.33,214.78 c-7.55,11.63-16.27,22.52-24.33,33.84c-2.24,3.18-4.44,6.53-5.86,10.14c-2.44,6.05-2,11.87,3.58,16.39 c5.78,4.68,11.48,3.11,16.63-0.75c3.69-2.79,6.8-6.33,10.1-9.55c32.35-31.68,63.56-64.74,101.1-90.45 c41.08-28.11,83.88-52.99,134.79-58.65c25.12-2.79,50.31-4.99,75.63-0.94C868.34,564.14,867.94,566.69,863.07,573.3z" fill="#243440"/></g></svg>