<?xml version="1.0" encoding="UTF-8" standalone="no"?><svg xmlns="http://www.w3.org/2000/svg" xmlns:xlink="http://www.w3.org/1999/xlink" data-name="Capa 1" fill="#000000" height="2815.3" preserveAspectRatio="xMidYMid meet" version="1" viewBox="-0.8 -125.7 4386.6 2815.3" width="4386.6" zoomAndPan="magnify"><g id="change1_1"><path d="M0,1101.74c.54,260.54,54.75,531,214.34,736.9C448.18,2140.38,857,2244.76,1238,2268.41s770.94-13,1138.79,89.08c237.44,65.89,456.43,187.44,693.47,254.79a1599.63,1599.63,0,0,0,694.06,39.54c115.89-19.06,234.27-53.45,321.1-132.55,89.4-81.44,134.39-200,169.14-315.8,90.84-302.8,131.26-634.77,22.55-931.61-88.37-241.34-267-437.95-452.67-615.62-201-192.33-423-374.83-688.17-459C2775,82.44,2384.09,163.86,2005.25,148.59c-443.07-17.85-1057.89-274.25-1478-70C153.7,260.13-.8,714.17,0,1101.74Z" fill="#f1d1c6"/></g></svg>